/* XPM */
static char *result[] = {
/* columns rows colors chars-per-pixel */
"64 64 256 2 ",
"   c None",
".  c #25393F",
"X  c #79533E",
"o  c #76523F",
"O  c #263B40",
"+  c #2A3C43",
"@  c #2F3F48",
"#  c #323F42",
"$  c #2C4247",
"%  c #2C434A",
"&  c #2F494D",
"*  c #33434B",
"=  c #38474B",
"-  c #2B4B54",
";  c #374550",
":  c #394652",
">  c #3C4955",
",  c #36495C",
"<  c #374956",
"1  c #2C5358",
"2  c #335554",
"3  c #37585D",
"4  c #396A5D",
"5  c #376459",
"6  c #374E63",
"7  c #394D63",
"8  c #2B5C69",
"9  c #295A65",
"0  c #355265",
"q  c #3B5463",
"w  c #3A5C64",
"e  c #3C5C6B",
"r  c #345C68",
"t  c #27606B",
"y  c #29616B",
"u  c #2E6669",
"i  c #3C6365",
"p  c #326C6B",
"a  c #3E6B69",
"s  c #376567",
"d  c #3D7463",
"f  c #36726B",
"g  c #39746B",
"h  c #3D7B6B",
"j  c #3F7966",
"k  c #3E6572",
"l  c #326D73",
"z  c #336770",
"x  c #387678",
"c  c #2F6B72",
"v  c #454543",
"b  c #494642",
"n  c #594C45",
"m  c #444C5D",
"M  c #414C56",
"N  c #48545A",
"B  c #505A5E",
"V  c #644E42",
"C  c #735242",
"Z  c #7A5542",
"A  c #7C5748",
"S  c #645253",
"D  c #6B5551",
"F  c #66565C",
"G  c #6F5142",
"H  c #474F60",
"J  c #494F62",
"K  c #415465",
"L  c #4C5265",
"P  c #4E5269",
"I  c #465B6C",
"U  c #4A5D6B",
"Y  c #485768",
"T  c #5A5563",
"R  c #52556B",
"E  c #535A6E",
"W  c #575868",
"Q  c #555B73",
"!  c #5B5E71",
"~  c #595E7A",
"^  c #555D78",
"/  c #406967",
"(  c #417669",
")  c #427D6A",
"_  c #47756B",
"`  c #4B6676",
"'  c #416672",
"]  c #5E6273",
"[  c #56647C",
"{  c #5A607E",
"}  c #536D7B",
"|  c #5A697B",
" . c #556575",
".. c #407371",
"X. c #457C7A",
"o. c #4A7879",
"O. c #5B656B",
"+. c #62726F",
"@. c #626575",
"#. c #686B78",
"$. c #726F7B",
"%. c #6A7578",
"&. c #75737D",
"*. c #77787D",
"=. c #835947",
"-. c #865A4A",
";. c #915F4F",
":. c #9B6354",
">. c #98665A",
",. c #8E6254",
"<. c #A3685B",
"1. c #866461",
"2. c #B56E61",
"3. c #B97266",
"4. c #AD7774",
"5. c #AB7470",
"6. c #C5766A",
"7. c #D57C71",
"8. c #D87E73",
"9. c #D17A6F",
"0. c #42826B",
"q. c #468976",
"w. c #458476",
"e. c #DB827D",
"r. c #D7817B",
"t. c #C5807F",
"y. c #5C6483",
"u. c #5E6789",
"i. c #5F688B",
"p. c #556281",
"a. c #5F7295",
"s. c #61698E",
"d. c #6D768F",
"f. c #767B84",
"g. c #7E7882",
"h. c #73778D",
"j. c #636D94",
"k. c #686F92",
"l. c #637396",
"z. c #607A97",
"x. c #757F9A",
"c. c #847C83",
"v. c #3F8281",
"b. c #4C8B88",
"n. c #478A85",
"m. c #4C938B",
"M. c #4F998D",
"N. c #51978E",
"B. c #5E8499",
"V. c #5B8D9A",
"C. c #5C8497",
"Z. c #529E94",
"A. c #5A929C",
"S. c #549794",
"D. c #518E8B",
"F. c #7B8189",
"G. c #798386",
"H. c #76809B",
"J. c #7A849C",
"K. c #798495",
"L. c #53A096",
"P. c #848B8D",
"I. c #898689",
"U. c #88968B",
"Y. c #888D93",
"T. c #8C9395",
"R. c #939191",
"E. c #9A9A97",
"W. c #949A99",
"Q. c #9A9C99",
"!. c #928F90",
"~. c #9BA29D",
"^. c #97A398",
"/. c #A2A49E",
"(. c #848EA1",
"). c #929CA5",
"_. c #959FA8",
"`. c #8D96A2",
"'. c #9DA6A5",
"]. c #A5ACA4",
"[. c #A6ABA5",
"{. c #ABB5AB",
"}. c #AEB9AA",
"|. c #ADB1A7",
" X c #B4BBAD",
".X c #B1BBB1",
"XX c #AFBAB1",
"oX c #D18E96",
"OX c #D59297",
"+X c #C7898A",
"@X c #E99C9B",
"#X c #E9A29F",
"$X c #EA99A3",
"%X c #EBA1B3",
"&X c #F6A4B3",
"*X c #FAA8BC",
"=X c #B7C0B1",
"-X c #BBC5B4",
";X c #BFC9B6",
":X c #C1CBB7",
">X c #C2CCB9",
",X c #C8D2BD",
"<X c #FFADC5",
"1X c #FFAFC8",
"2X c #FFB2CA",
"3X c #FFBACB",
"4X c #FFB0C7",
"5X c #FFCCD3",
"6X c #FFD3D6",
"7X c #FFD6D8",
"8X c #FFC1CF",
"9X c black",
"0X c black",
"qX c black",
"wX c black",
"eX c black",
"rX c black",
"tX c black",
"yX c black",
"uX c black",
"iX c black",
"pX c black",
"aX c black",
"sX c black",
"dX c black",
"fX c black",
"gX c black",
"hX c black",
"jX c black",
"kX c black",
"lX c black",
"zX c black",
"xX c black",
"cX c black",
"vX c black",
"bX c black",
"nX c black",
"mX c black",
"MX c black",
"NX c black",
"BX c black",
"VX c black",
"CX c black",
"ZX c black",
"AX c black",
"SX c black",
"DX c black",
"FX c black",
"GX c black",
"HX c black",
"JX c black",
"KX c black",
"LX c black",
"PX c black",
"IX c black",
"UX c black",
/* pixels */
"                                ` ` `  . .`  .r 8 p 0.0.Z.Z.Z.Z.Z.Z.Z.Z.Z.Z.Z.Z.g c r 0 0 0 0 c l l l l w.q.q.q.q.Z.Z.Z.Z.n.t t ",
"                      | | ' y y y 8 u y y y y 0 7 k 0.w.M.Z.Z.Z.Z.Z.Z.Z.Z.Z.Z.Z.0.0.f 8 y t t n.Z.Z.Z.L.Z.Z.Z.Z.Z.Z.Z.Z.Z.m.t t ",
"                      | | ' y y y y y y y y y 0 7 i 0.0.Z.Z.Z.Z.Z.Z.Z.Z.Z.Z.Z.Z.0.0.p y y t 8 n.L.Z.Z.Z.Z.Z.Z.Z.Z.Z.Z.Z.Z.m.t t ",
"| k y y y y y y y y y ) ) ..h h h h h ) f y y 0 7 r p f Z.Z.Z.Z.Z.Z.Z.Z.Z.Z.Z.Z.M.M.x y u h h m.Z.Z.Z.Z.Z.Z.Z.Z.Z.Z.Z.Z.Z.b.0 r ",
"| k t t t y t t t 8 u h 0.0.0.0.0.0.0.0.g 8 8 6 7 0 t u Z.Z.Z.Z.Z.Z.L.L.Z.L.Z.Z.S.L.x y u 0.0.M.L.Z.Z.Z.L.Z.Z.Z.Z.Z.Z.Z.Z.b.6 6 ",
"` k p p p p p p p p p ) 0.0.0.0.0.0.0._ 1 - e P Y I Y ' ` } } } } } } } ` } } } / 3 s p f g g m.Z.Z.Z.L.Z.Z.Z.Z.Z.Z.Z.Z.L.b.7 7 ",
"t g 0.0.0.0.0.0.0.0.0.0.) ) 0.0.) 0.0.( . . J R P R R R R R R R Y P R R R R P W ; . 2 0.h t t n.L.L.L.L.Z.Z.Z.Z.Z.Z.Z.Z.Z.b.7 7 ",
"y g 0.0.0.0.0.0.0.0.) 5 / _ _ _ _ _ o.o.w i ^ p.p.} | p.} ~ ~ ~ ~ | p.} | } [ ^ ` w ' o.o.s e o.b.p.h w.Z.Z.Z.Z.Z.Z.Z.Z.L.b.7 7 ",
"y g 0.0.0.) 0.0.0.0.4 . $ R R R P { j.z.A.A.l.j.B.A.A.A.V.l.j.j.j.B.A.A.A.A.l.j.B.A.B.l.s.R R P R > . 1 Z.Z.Z.Z.Z.Z.Z.Z.L.b.6 7 ",
"8 g 0.0.j ) ) ) ) w.a & & E Q  .Q y.j.l.V.V.z.l.B.A.A.A.V.j.j.j.j.z.V.V.A.A.l.l.B.V.B.j.i. .^ Q Q K & 3 S.S.N.N.m.m.N.L.L.b.7 7 ",
"y g 0.d + $ L R y.j.z.V.S.V.A.V.A.C.j.j.j.j.V.V.A.A.B.j.j.j.j.j.j.j.l.l.A.A.A.V.z.j.k.j.j.V.V.A.A.V.V.V.j.j.Q R < + 3 w.n.x 7 7 ",
"8 g 0.j + + L R y.k.z.V.V.A.A.A.A.z.j.j.k.j.V.A.A.A.B.j.j.j.j.j.j.j.l.l.A.A.A.A.z.j.j.j.l.A.A.A.A.A.A.B.k.j.Q Q < + 2 p 8 8 7 7 ",
"% 2 E  .p.p.'.[.|.{.'.G.F.l.l.l.a.l.j.j.j.j.l.l.H.f.T.XX{.{.{.{.{.{.{.[.f.F.l.l.j.j.j.j.j.a.j.l.l.d.G.Y.{.{.[.[.h.p.[ P K % @ 6 ",
"O < R E j.j.XX>X>X:X|.c.g.k.j.j.j.j.j.j.j.j.j.j.h.c.R.>X>X>X;X>X:X>X>X Xc.c.j.j.j.j.j.j.j.j.j.j.j.h.1.!.>X>X;X>X(.j.y.R P + O , ",
"O * > L ).).Y.P.P.P.R././.h.d.k.j.j.j.j.j.j.`.)._.].Q.P.I.P.P.P.P.P.P.Y.]./.).).x.j.j.j.j.j.j.d.d.Y.[.'.P.P.P.P.`._.f.< < + + , ",
"+ + . N ;X;X@.P P P f.>X=XI.c.k.s.j.j.j.j.j. X:X:X>X~.P P P R R R R P #.;X;X:X>X(.j.j.j.j.j.j.h.c.'.,X].R P P P ~.,XU.. O + O , ",
"+ O . > ^.^.O.m J H @.]./.R.R.Y.H.H.J.J.J.J.[.{.[.].P.m J m m L L m m ! ].].|.}.`.J.J.J.J.J.J.!.!.Q.].U.m m L m G.~.%.. $ . $ < ",
"+ + + + + . + O + O ; R ] .X;X-X-X;X-X;X;X-X!.c.@.R m . + + + + . + + * R R c.c.[.;X-X;X-X;X;X:X:XY.R L + + + + . $ + # . # + 3 ",
"+ + O + + + + + + + @ P ! }.=X=X=X=X=X=X=X XI.g.@.R M $ # + # + # + . = L R &.*./.=X X-X X-X X X=XP.L m + + + + . + + . + + + d ",
"+ + + + + . + + + + @ + * ! ] ] ] ] ] ] ] ] = * % $ b o C C C C C C C V @ @ * * L @.] ] ] ] ] ] ] m @ @ + + . + $ . . $ O + + d ",
"+ + + . + . + + + O + + @ R R R R R R R R R @ O + . v X Z Z X Z X X X V + + O O M R R R R R R R R > + + + O + + + + + + + + + d ",
"< & + + + + + + + + + + # @ > @ : ; : * ; ; + + b n A 3.3.oXOXoXOX+X2.<.V n # + * : : ; ; ; : ; = * + + + + + + + O + + @ 5 4 j ",
"' r + + + + + . @ + + O + + @ + . . O + O O O O n X :.7.e.<X2X2X<X@X8.6.Z C @ O O O O O O O O + O O + O O . + + + + O + $ 0.0.0.",
"Z.g . $ . + . $ @ > @ : : : @ M : : : : : < b b 1.4.t.@X@X3X3X2X<X&X@XOX4.4.n b v : : : : : : > : : : : : : + + $ . + + $ ) 0.0.",
"Z._ + + + + + . M R R R Q R R R R R R R R R A Z oX1X3X7X6X6X6X2X<X8X7X5X2X<X,.X F R E R R R R R R R R R R R @ + . + + O $ 0.0.0.",
"Z...O + + + @ @ m R R R R R R R R R E R T T A -.oX<X3X6X6X6X6X3X<X3X6X5X<X<X>.=.F T R R R R R R R R R R R R * @ + + + + $ 0.0.0.",
"Z...+ + + + J R R R R R R R R R R R R T Z A 6.7.$X1X3X6X6X6X6X3X<X<X<X<X<X<Xe.9.:.Z D R R R R R R R R R R R R R = O + + $ ) 0.0.",
"Z.g + + + @ J R R R R R R R R R R R R T Z A 6.7.$X1X3X6X6X6X6X3X<X<X<X<X<X<Xe.8.:.Z D R R R R R R R R R R R R R : + + + $ ) 0.0.",
"Z...+ + + + P R R R R R R R R R R R R T A =.$X&X<X<X2X2X2X3X2X2X<X2X<X1X<X<X&X&X5.X D R R R R R R R R R R R R R : . . $ $ 0.0.0.",
"Z...+ + + + J R R R R R R R R R R R R T Z A %X2X1X<X<X<X<X<X<X<X<X<X<X<X<X<X1X2X4.X D R R R R R R R R R R R R R = . $ . $ 0.0.0.",
"Z...+ + + + ; > L R R R E R R R R R R T Z A %X<X<X1X<X1X<X<X<X<X<X<X<X<X<X<X1X1X4.X D R R R R R R R R R R R M M * + . + $ 0.0.0.",
"Z...+ + + + O O M E R R R R R R R R R T Z =.%X2X<X<X<X<X<X<X<X1X1X<X<X1X<X<X1X2X4.Z D R R R R E E R R R R R @ . + + $ . $ 0.0.0.",
"w.i + + . $ . $ > J J N L L J L R R P T Z A $X&X<X<X<X<X<X<X<X<X<X<X<X<X<X<X&X&X5.X D R R R R J J m J m N J @ + + + + + @ 3 u u ",
"+ + + O $ . + . + + + . . O O J R R R T Z Z 6.7.$X<X<X<X<X<X<X<X1X<X<X<X2X<Xe.7.:.X D R R R R * + + + + + + O + + O + O O + $ 1 ",
"+ + $ @ + $ * = * * * $ $ + + J R P R T C Z 6.9.$X<X<X<X<X<X<X<X<X*X<X*X<X*Xe.9.:.X D P P R R * $ . $ * $ $ * * $ + @ + + + O 9 ",
"O > P R y.s.'.}.|.}.^.&.&.R P ; @ % @ # # # C =.3.8.8.+X8.8.e.e.e.e.e.e.e.r.;.-.n $ . * # $ @ m T @.&.I.}.}.|.}.K.u.~ P J + + , ",
"O > R Q l.l.}.>X:X>X|.I.1.~ Q * O + + + + + G Z 2.8.7.8.7.8.8.8.8.8.r.7.8.9.-.X b . . + + O + J R #.c.R.;X;X>X>XJ.j.y.R L + + , ",
"+ % = L '.'.F.f.*.f.P.].].&.$.P m : + . + O v v S S S S S S S S S S S S S S b b $ + + + @ m m @.$.!.|.~.f.f.f.f.).[.F.* * @ . 9 ",
"+ O . N >X>X@.P P P *.>X-XI.c.! R > . . . . O . O O O O O O O O . . . O . . . O . . . . + J R g.1.'.,X[.R P P P ~.,XU.. + O + 9 ",
"- & + = G.P.! R R P #.W.W.E.E.I.F.%.+.+.+.+.B L > : : : : : : : : : : : : > N N O.+.+.+.%.f.g.R.'.W.W.P.R R R R f.U.+.. $ 2 & s ",
"6 - + + . . L R R R R P ! =X:X:X:X:X>X>X>X:XI.c.@.P R R R R E R R R R R P R 1.I.[.>X>X>X:X:X:X:X>XP.L R R R R R ; . O O & m.0.0.",
"7 1 @ $ + + m L R R R R  .|..X.X.X}.|.}. X X!.!.h.@.@.@.@.@.@.@.@.@.@.@.@.#.Y.Y.]..X X}.XXXXXXXX.XP.P R R R P P = O $ & 2 M.0.0.",
"Y Y I 3 + + + @ m R R R E j.j.j.j.y.Q ] c.c. X-X X-X-X X X-X X X=X-X=X-X=X=X-X=XQ.c.$.R ! j.k.j.l.y.R R R P @ + + + s M.Z.Z.M.M.",
"U U ` K + + + O m R R R E j.j.j.k.y.R ! c.c. X-X;X-X;X;X;X-X;X;X-X-X-X-X:X-X-X-XE.c.$.R E j.j.j.j.y.R R R P @ + + + w Z.Z.Z.Z.L.",
"U U Y ` Y Y K K < * > R R Q Q s.j.s.s.s.@.! #.#.d.x.x.x.x.x.x.x.H.H.x.H.H.H.d.#.@.! ~ s.s.j.j.p.Q Q R J * @ + + a n.b.Z.Z.Z.Z.Z.",
"        | | | | > O * R R R R s.j.j.j.s.R R R R y.k.j.k.j.j.j.j.j.j.j.j.j.s.E R R R ~ j.j.k.j.! R R R J + + + + X.Z.Z.Z.Z.Z.Z.Z.",
"        | | | | Y > > > M > M R y.y.j.j.p.y.R R Q p.y.j.j.j.j.j.j.j.j.j.p.{ R R ! y.u.j.j.p.~ J > > M > a g a d b.L.Z.Z.Z.Z.Z.Z.",
"        | | | | [ I H + O O O m R y.k.j.j.j.Q R R R ~ j.k.j.j.j.j.j.j.i.R R R R y.j.k.j.j.R R @ + O O @ m.Z.Z.Z.Z.L.Z.Z.Z.Z.Z.Z.",
"        | | | |  .U K % % + + > L I p.p.u.u.Q R R R Q s.s.s.y.s.s.s.s.y.R R R R p.i.y.p.^ J m * + $ % - m.L.Z.Z.Z.Z.L.Z.Z.Z.Z.Z.",
"        | | | | ` s r 7 7 @ + + + O + @ R R R R R R R R R R R R P R P R R R R W R R m + + + + + + 1 f f m.Z.Z.Z.Z.Z.Z.Z.Z.Z.Z.Z.",
"        | | | | ` t t 7 , @ + + + + + @ L R P L R R P P R L P P P P L R R R P P R R m O + $ % + $ 1 0.0.M.Z.Z.Z.Z.Z.Z.Z.Z.Z.Z.Z.",
"        | | | | ` 8 t r q 6 3 q q ; + + @ @ @ @ + * + * @ % % $ # $ @ @ @ $ $ $ @ @ + O & b.M.l y p 0.0.Z.Z.Z.Z.Z.Z.Z.Z.Z.Z.Z.Z.",
"  | | | | | | | ` t y h 0.) 0.0.0.5 O + + O + + . + + + . + + O . + + + O + + . O . + . * N.Z.q.0.0.0.0.M.Z.Z.Z.Z.Z.Z.Z.Z.Z.Z.Z.",
"  | | | | | | | ` t u 0.0.0.0.0.) j 4 4 4 4 4 4 4 4 4 4 4 4 3 1 1 < < ..X.X.X.X.X.X.X.w.n.Z.Z.q.0.0.0.0.M.Z.L.Z.Z.Z.Z.Z.Z.Z.Z.Z.",
"  | | | | | | | ' y y h 0.0.0.0.0.0.0.0.0.0.0.) 0.0.0.0.0.0.) h a 7 7 z x v.L.Z.Z.Z.Z.Z.Z.Z.L.q.0.h p p M.Z.Z.Z.Z.Z.Z.L.Z.Z.Z.Z.",
"  | | | | | | | ` y u h ) 0.0.0.0.0.0.0.0.0.0.0.0.0.0.0.0.0.0.0.( 7 7 8 8 x Z.Z.Z.Z.Z.Z.Z.Z.Z.q.0.g 8 y m.Z.Z.Z.Z.Z.Z.Z.Z.Z.Z.Z.",
"    | | | | | | ` t y h 0.0.0.0.0.0.0.0.0.0.0.0.) 0.0.0.0.0.0.0.h 7 7 8 y x L.L.Z.Z.Z.Z.Z.Z.Z.q.0.g t t m.M.Z.Z.Z.Z.Z.Z.Z.Z.Z.Z.",
"        | | | | ` t y 0.0.0.0.0.0.0.0.0.0.0.0.0.0.0.0.0.0.0.0.0.( 7 7 r y x Z.Z.Z.Z.Z.Z.Z.Z.Z.q.0.h y u m.L.Z.L.Z.Z.Z.Z.Z.Z.Z.Z.",
"        | | | | ` t y h 0.0.0.0.0.0.0.0.0.0.0.0.0.0.0.0.0.0.0.0.( 6 6 8 t x L.Z.Z.Z.Z.Z.Z.Z.Z.w.0.g t t m.L.L.L.Z.Z.Z.Z.Z.Z.Z.Z.",
"                  y u h 0.0.0.0.0.0.0.0.0.0.0.0.0.0.0.0.0.0.0.0.( 6 6 7 6 k q.0.l z s e e e e 0 q q 0 8 m.L.L.L.Z.q.0.x c z e e ",
"                  y y 0.0.0.0.0.0.0.0.0.0.0.0.0.0.0.0.0.0.0.0.0.( q 7 7 6 w 0.0.y y 9 7 6 6 7 7 6 7 7 7 M.L.L.L.Z.0.0.p 9 8 6 7 ",
"                  k k / a a a a a a / a d a / / a a a a a / a ( i 7 7 7 7 w f g k ' I U I K K K e K q K w.p.p.v.X.g g l k k I I ",
"                  | | 7 7 7 6 6 7 7 7 7 7 7 7 7 7 7 6 6 7 7 7 7 7 7 7 7 7 0 y y [ | | | { U U U U U U U 7 7 7 6 6 8 8 ` | | { | ",
"                  | [ K 7 7 7 7 7 7 7 7 7 7 7 7 7 7 7 6 7 7 7 7 7 7 7 0 7 0 y y } | | | [ U U U U U U U 7 7 7 7 6 y t ` | | | | "
};
