/* XPM */
static char *result[] = {
/* columns rows colors chars-per-pixel */
"64 64 256 2 ",
"   c None",
".  c #3E4D36",
"X  c #3D4C3A",
"o  c #38473E",
"O  c #3F5039",
"+  c #404E36",
"@  c #424B39",
"#  c #435236",
"$  c #4A5B36",
"%  c #4A5B39",
"&  c #475639",
"*  c #55513A",
"=  c #51463E",
"-  c #74593E",
";  c #4F6236",
":  c #506336",
">  c #566B36",
",  c #596E36",
"<  c #556A39",
"1  c #57693B",
"2  c #5B7136",
"3  c #5E7439",
"4  c #687F3D",
"5  c #63793B",
"6  c #62693E",
"7  c #2C3D46",
"8  c #2E3F48",
"9  c #383E48",
"0  c #4A3E49",
"q  c #533E48",
"w  c #5A3C48",
"e  c #5D3E50",
"r  c #653645",
"t  c #653A47",
"y  c #6B3C47",
"u  c #633C49",
"i  c #6A3C49",
"p  c #683647",
"a  c #713B47",
"s  c #2F414A",
"d  c #2F4047",
"f  c #324246",
"g  c #314149",
"h  c #394849",
"j  c #384857",
"k  c #395E59",
"l  c #385757",
"z  c #2D4E58",
"x  c #3A655C",
"c  c #374E64",
"v  c #394C63",
"b  c #3B4D6F",
"n  c #2A5E6A",
"m  c #2A5C68",
"M  c #335566",
"N  c #3C5366",
"B  c #3B5E65",
"V  c #395968",
"C  c #335070",
"Z  c #2A626B",
"A  c #29626C",
"S  c #3D6567",
"D  c #3E6A66",
"F  c #336D6B",
"G  c #3D6D69",
"H  c #366767",
"J  c #36726B",
"K  c #39766B",
"L  c #3D7C6B",
"P  c #3E7465",
"I  c #3C7C7D",
"U  c #397876",
"Y  c #326970",
"T  c #484749",
"R  c #59454B",
"E  c #48435D",
"W  c #42455B",
"Q  c #585854",
"!  c #53544E",
"~  c #67444B",
"^  c #73414A",
"/  c #79484A",
"(  c #7D5858",
")  c #6E524F",
"_  c #53635A",
"`  c #6D724E",
"'  c #484562",
"]  c #464964",
"[  c #445A69",
"{  c #4A5D6C",
"}  c #465467",
"|  c #4D5571",
" . c #456B69",
".. c #5E6B6C",
"X. c #417D6A",
"o. c #467564",
"O. c #476674",
"+. c #556778",
"@. c #516878",
"#. c #5A697B",
"$. c #477777",
"%. c #587F7A",
"&. c #615B60",
"*. c #863D3A",
"=. c #B35336",
"-. c #AF4629",
";. c #884C49",
":. c #8A5947",
">. c #985749",
",. c #8A5E51",
"<. c #A65A47",
"1. c #B65F45",
"2. c #8B6256",
"3. c #986858",
"4. c #956B51",
"5. c #BB6246",
"6. c #B46248",
"7. c #BA6649",
"8. c #BC694A",
"9. c #B86346",
"0. c #BA7754",
"q. c #AB6C52",
"w. c #8C6767",
"e. c #95766B",
"r. c #B97D61",
"t. c #855E62",
"y. c #C17751",
"u. c #C06C4B",
"i. c #6A813E",
"p. c #3F827F",
"a. c #6D8441",
"s. c #728944",
"d. c #7B9346",
"f. c #7E9648",
"g. c #7F9848",
"h. c #42826B",
"j. c #498E7C",
"k. c #468576",
"l. c #53887D",
"z. c #809949",
"x. c #AF865D",
"c. c #988C69",
"v. c #A79664",
"b. c #B99866",
"n. c #A58D7F",
"m. c #B68B68",
"M. c #BFA16B",
"N. c #C8895A",
"B. c #CA965F",
"V. c #C88663",
"C. c #CB9967",
"Z. c #D0976E",
"A. c #CCA667",
"S. c #D4A767",
"D. c #CCB26C",
"F. c #D9BC6E",
"G. c #D6B56C",
"H. c #DBBD70",
"J. c #D1B878",
"K. c #CBA979",
"L. c #E2BE6F",
"P. c #DCC172",
"I. c #DCC47B",
"U. c #E3C273",
"Y. c #295D8B",
"T. c #275B85",
"R. c #335A8C",
"E. c #35708E",
"W. c #3766AF",
"Q. c #485891",
"!. c #4E7B80",
"~. c #476A9A",
"^. c #4862B1",
"/. c #486BB0",
"(. c #555FA8",
"). c #3C6DC8",
"_. c #4971DC",
"`. c #4571DA",
"'. c #466ECE",
"]. c #4776EA",
"[. c #4877F0",
"{. c #4879F2",
"}. c #4676F2",
"|. c #6275CB",
" X c #4B8B86",
".X c #558985",
"XX c #4C938C",
"oX c #4D9587",
"OX c #52968C",
"+X c #4F9990",
"@X c #4E9790",
"#X c #529E94",
"$X c #509790",
"%X c #53A095",
"&X c #6397D4",
"*X c #439CE7",
"=X c #4884F2",
"-X c #488BF3",
";X c #468BF5",
":X c #4896F5",
">X c #4689E8",
",X c #6E93E5",
"<X c #6C8FE2",
"1X c #48A6F8",
"2X c #48A8F8",
"3X c #47A6F9",
"4X c #9FA48F",
"5X c #BAAA92",
"6X c #B2A68D",
"7X c #AA9886",
"8X c #D3B48C",
"9X c #CBBFA0",
"0X c #DDC786",
"qX c #DACA9C",
"wX c #E2CC97",
"eX c #E4D697",
"rX c #E4CD85",
"tX c #DBD9B4",
"yX c #D5CBA6",
"uX c #E1CBA1",
"iX c #E7DBA7",
"pX c #E4DCB2",
"aX c #EAE3AC",
"sX c #E9E0A3",
"dX c #EEEDBD",
"fX c #ECE6B4",
"gX c #F0ECBB",
"hX c #F1EFC3",
"jX c #EFF0C0",
"kX c #F1F1C2",
"lX c #F7F6C9",
"zX c black",
"xX c black",
"cX c black",
"vX c black",
"bX c black",
"nX c black",
"mX c black",
"MX c black",
"NX c black",
"BX c black",
"VX c black",
"CX c black",
"ZX c black",
"AX c black",
"SX c black",
"DX c black",
"FX c black",
"GX c black",
"HX c black",
"JX c black",
"KX c black",
"LX c black",
"PX c black",
"IX c black",
"UX c black",
/* pixels */
"              #.#.@.Z Z Z A n . . ; , 2 g.g.i.5 2 5 2 i.z.g.g.g.i., 2 2 2 $ . . . . : 2 , . + %.OX#X#X#X#X#X%X#X#X#X%X+XA A     ",
"              #.#.@.n n n n n O . $ $ ; 5 i.i.i.i.i.i.i.5 i.i.i.> $ $ , 2 > ; ; : : ; $ $ . # k.#X#X#X#X#X#X#X#X#X#X#X+XA A     ",
"A n Z Z Z Z    .$.$.P K K K J . . . . . , 2 i.z.g.z.z.i., , , , $ . # 2 , 2 2 2 , 2 $ . . . + h.#X#X#X%X#X#X%X#X#X#X#X+XV M n   ",
"A Z Z Z A A A K h.h.h.h.L P P & $ . . . 2 3 i.z.g.d.g.i.2 2 3 5 ; # # > > , 2 , > , $ . . . . $.#X#X#X#X#X#X#X#X%X#X#XOXN v M Z ",
"Z A Z A A A A K h.h.h.h.k d f 2 2 $ . $ d.d.g.g.d.3 2 2 2 3 d.f.4 , > + + : 2 > O . . # . d s k.%X#X#X#X#X#X#X#X#X#X#X$XN c M Z ",
"L h.h.h.h.h.L h.h.h.h.h.k d f , 2 $ . $ d.g.g.g.d.2 , 2 2 3 d.g.4 , > + . : 2 , . . . . . d 7 $.#X#X%X#X%X#X#X#X#X#X#X@XV c v c ",
"h.h.h.h.h.h.h.h.h.h.h.h.k d f 2 2 ; O O 1 ! 3 i.4 i.s.4 , 3 d.f.d.i.4 + + & $ $ ` i.< : % d f $.#X#X#X#X#X#X#X#X#X#X#X+XN v v v ",
"h.h.h.h.h.h.h.h.h.h.h.h.k f f , 2 : . . . O ; 2 2 f.z.i., 3 d.g.z.z.d.+ + + . $ g.z.i.2 < g f $.#X%X#X#X#X#X#X%X#X#X%X+XN v v v ",
"h.h.h.h.h.h.h.h.h.h.h.h.k d f > , $ . . # # > 3 5 d.d.5 > 2 d.g.d.d.a.@ + + + & d.z.i.5 ` s s $.%X#X%X%X#X#X%X%X#X#X#X$XN v v v ",
"h.L h.h.h.h.h.h.h.h.h.h.k d f . . # . # , 2 i.g.d.3 2 $ . $ d.g.i., < f 8 o + & f.f.z.d.s.g s U +X#X#X+X%X#X#X+X#X$X@X@XN c v N ",
"h.h.h.h.h.h.h.h.h.h.h.h.k g f . . . . O , , i.g.d.2 2 $ . & d.g.i., < f 8 X + $ f.z.f.z.s.g s $.%X%X%X%X+X%X+Xk.h.K A A c v | #.",
"h.h.h.h.h.h.h.h.h.h.h.h.k d f . . $ : : $ $ ; ! ! $ $ # . & d.g.3 $ & f 8 f o h 1 : a.z.s.g g $.%X%X%X%X%X%X+Xk.h.K A Z v c { #.",
"h.h.h.h.h.h.h.h.h.h.h.h.k d d O . ; , , + + f 8 o . . . . $ d.g.1 . . d d d 9 f . . ` g.s.f g S $.$.O.$.$.$.O.S S V m M c v V O.",
"h.h.h.h.L h.h.h.h.h.h.h.x h h X X ; 2 > + + h 9 f * * # . # s.s.6 * * T T h 9 f @ . 5 d.a.f g z v v c c v v c c v v v v v v m A ",
"h.h.h.h.h.h.h.h.h.h.h.h.L h.K s 8 ! 2 > f 8 q i ^ 6.7.- . . + . :.8.7.7.5.;.y ~ @ . $ 2 < f d z v v v v v v c N v c c N v v M n ",
"X.h.h.h.h.h.h.h.h.h.h.h.J Z n d g % 2 > f 8 q y ^ 7.u.- . . . . :.7.7.8.u.;.y y . . : 2 < d d j v v v v v v c n n Z Z n v v v c ",
"h.h.h.h.h.h.h.h.h.h.h.h.F A m 9 8 h $ & w w ;.>.<.;.;.;.>.:.~ w q.S.C.;.;.>.<.>.= R * $ & d 7 j v v v v c v v n A n n n c c v c ",
"S S S S D J F G S  .S S V M M g f o + @ y y >.u.6.i i >.8.6.a p x.U.S.i p >.u.9.a p = . X d d l H D D S D D D J J J K K D D V v ",
"v j c v c A A M v v v v c v j g g h . @ a a 3.V.0.u w 2.V.r.w.t.M.rX8Xu w 3.r.r.a a T X o s s H h.h.h.k.h.h.h.h.h.h.h.h.h.h.S v ",
"N N V N V A Y V V N N V N M N M N B d f p p 6XlXtXh 7 4XlXkXhXhXhXhXtX9 9 4XlXpX^ a T s h A Z K h.h.h.h.h.h.h.h.h.h.h.h.h.h.S v ",
"h.L XX+X+X+X#X+X$X#X$X$Xk.X.L Z n B 8 h i p 5XlXtXj 7 4XlXhXhXlXhXlXtXs 7 6XlXtX^ i 0 d f X.h.h.h.h.h.h.h.h.h.h.h.h.h.h.h.h.D c ",
"h.h.oX%X#X#X#X#X#X#X%X%Xj.h.L Z A $.k.$.0 9 w.Z.Z.m.v.qXlXhXhXhXlXhXjXv.v.C.Z.m.W 0 k G o.h.h.h.h.h.h.h.h.h.h.h.h.h.h.h.h.h.S v ",
" Xj.+X%X#X#X#X%X#X#X#X%XoXj. XZ n p.%XXXs 7 / u.u.L.L.iXlXhXlXhXhXlXdXH.U.N.5.<.f f x h.h.h.h.h.h.h.h.h.h.h.h.h.h.h.h.h.h.h.S v ",
"%X%X#X#X#X#X#X#X%X#X#X%X%X%X@XA m  X.Xl.T T ;.1.6.S.S.wXfXfXfXpXfXfXpXS.S.x.<.>.R T _ o.o.h.h.h.h.h.h.h.h.h.h.h.h.h.h.h.h.h.S v ",
"%X#X%X#X#X#X#X#X#X#X#X#X#X#X@XA A { y ^ 6.7.;.y ^ 7.7.C.H.L.H.H.L.L.G.7.u.;.a a 9.9.;.t R h.h.h.h.h.h.h.h.h.h.h.h.h.h.h.h.h.D c ",
"#X#X#X#X#X#X#X%X#X#X#X#X#X#X@XX.L Q y y 6.7.;.y ^ 7.u.B.L.H.L.L.H.L.G.8.7.;.i / 1.1.;.t ~ h.h.h.h.h.h.h.X.h.h.h.h.h.h.h.h.h.J n ",
"%X#X#X#X#X#X#X#X#X#X%X#X#X#X.XQ ! c.yX8XA.A.0.<.<.=.=.<.2.2.2.2.2.2.>.=.-.<.<.q.M.A.8XyX5XQ ~ o.h.h.h.h.h.h.h.h.h.h.h.h.h.h.J A ",
"#X#X#X#X%X#X#X#X#X#X#X#X#X#XOXu p 6XkXdXI.P.N.5.1.-.-.*.p p a p p p a -.-.1.7.8.P.P.eXlXtX~ ~ _ h.h.h.h.h.h.h.h.h.h.h.h.h.h.J n ",
"#X#X#X#X#X%X#X#X#X#X#X#XOX.Xl.;.a 5XlXfXb.M.x.y.y.u.y.q.w.w.w.w.w.w.w.0.u.y.y.y.C.b.qXkXpX/ / Q o.o.h.h.h.h.h.h.h.h.h.h.h.h.J A ",
"#X#X#X#X#X#X#X#X#X%X#X#X..a i 6.1.8XkXpX^ u x.H.I.gXjXjXhXhXjXjXkXkXgXdXlXwXF.D.~ r 5XlXpX8.5.;.r ~ X.h.h.h.h.h.h.h.h.h.h.h.J A ",
"#X%X#X#X#X#X#X%X#X#X#X#X..r y 1.1.8XhXpX^ u x.H.I.dXjXjXjXjXjXjXkXgXkXkXkXrXF.A.~ p 5XlXiX7.9.;.u ~ h.h.h.h.h.h.h.h.h.h.h.h.h.h.",
"#X#X#X#X#X#X#X#X#X$X&.Q 7X9X9XuXuXwXrXJ.~ u 3.y.N.dXjXjXjXjXjXjXkXkXkXkXkX8Xy.q.i u m.rX0XuXqXqXyX5XQ ~ o.h.h.h.h.h.h.h.h.h.h.h.",
"%X#X#X#X#X#X#X#XOXOX= r 6XlXdXlXkXeXF.D.^ u >.5.y.dXkXdXjXjXjXjXkXkXkXkXlXK.5.1.i p x.P.U.dXkXkXlXtX~ r } S S F F F S S F F F S ",
"#X#X#X#X#X#X#XOXl.l.,.( 5XlXdXkXkX0Xb.m.R w / <.q.qXuXiXaXaXaXaXaXaXiXuXuXm.<.>.w q e.b.D.dXjXkXdXtX2.,.Q W W n Z M v v m n M v ",
"#X#X#X#X#X#X#X..a / G.P.eXdXdXdXkXn.r w 9 d q y a 1.6.B.P.F.F.F.H.F.G.7.9.;.p w f d q y ( dXjXjXdXfXF.P.4.u u m n M M M n n M v ",
"#X#X#X#X#X#X%X..i / D.P.sXdXlXdXlXn.r u g d q i ^ 6.6.B.P.J.F.P.F.H.D.7.9.;.p r d d q p ( jXjXjXkXfXF.P.3.u e c v M Z n v v v v ",
"%X%X%X#X#X#X%X..u ) iXpXgXdXkXkXdXn.t ~ g f 9 9 T A.A.rXfXaXaXaXaXaXiXS.S.( h h d d R r ( dXkXkXdXdXaXaXc.r e v c M A Z v v v v ",
"$.I k.j.j.I I } i / dXkXkXdXdXkXlXn.r w g g 8 8 T J.P.iXkXkXkXkXkXkXfXI.I.` 8 8 d d 0 p ( dXgXdXkXkXdXlXe.r ~ m m H K K n M M m ",
"A A K h.L Z A W q ) iXiXgXkXdXkXlXn.:.( g g d s h B.A.wXkXkXkXkXkXkXfXS.S.` 7 8 d 7 ) 2.e.dXjXhXkXdXaXaXe.q E A n J h.h.A A A A ",
"A A J h.K n Z z s h D.G.eXkXkXkXdXeXF.D.h d d f T 6.1.8XkXkXdXdXdXkXpX7.9.~ 8 9 d 7 c.I.U.dXjXjXkXfXP.P.` s s Y Y U k.h.A Y A Z ",
"h.h.F A n c c j g h D.F.eXkXkXdXdXeXF.A.h f 7 f h 6.9.8XkXdXdXkXkXkXpX8.u.~ f d d 7 c.F.I.dXdXkXdXfXH.F.` 7 z +X+X+X#X+Xh.h.K A ",
"h.h.F A n v c j c j Q Q 4.V.N.I.rXS.0.0.R w Q.'.'.&X&X&X,X,X,X,X,X,X<X|.|.'.'.^.e w 4.y.N.I.0XA.V.x.Q Q $. X X%X%X%X%X%Xh.h.J n ",
" . .B M M v v v v N s 7 ) 5.8.G.P.B.9.6.^ p (.{.=X3X2X-X[.[.}.}.}.}.}.}.[.{.{._.i p >.u.u.P.P.N.5.<.7 7 $.%X#X#X%X%X%X+XoXoXU A ",
"{ { N v v v v v v N S B &.>.4.v.v.4.:.:.~ u (.}.{.2X2X:X=X-X=X=X=X=X-X-X-X{.[._.e w ;.:.,.v.v.4.:.:.B k  X%X%X%X+X%X+X%X+X%Xp.m ",
"O.{ } N N v N v v V #X#X .8 8 8 8 8 8 g W E ^.}.=X1X1X1X2X2X2X2X2X2X2X2X2X-X[._.' ' g 8 8 8 s 7 8 s +X%X%X+X%X+X#X#X%X#X%X%Xp.m ",
"#.+.#.#.+.{ { } v V #X#X .8 8 f g g g 9 ' E ^.}.{.1X2X2X2X2X2X1X2X2X2X2X2X-X{.`.' ' j s g 8 d d 8 s +X%X#X#X%X%X#X#X#X#X%X%XI A ",
"#.#.#.#.+.{ { N v V +X%XXX X X X X X X X] E ^.}.=X1X2X2X2X2X2X2X2X2X2X2X2X-X[._.' ' @. X Xo.P H m n +X#X#X#X#X#X#X%X#X#X#X%XI A ",
"#.#.#.#.+.{ { } c M I U k.j.j.#X#XoXj.k.' E ^.{.{.1X2X2X2X2X2X2X2X2X2X2X2X-X[.`.' ' !.%XOXh.h.J n Y #X%X#X#X%X#X#X#X#X%X#X%XI m ",
"#.#.#.#.@.{ { [ c c n n K h.k.#X#Xj.h.L W E ^.}.{.:X:X3X2X2X2X2X1X2X2X2X3X;X}._.' ' $.%X+Xh.h.F n Y +X#X#X#X#X#X#X#X#X#X%X%XI A ",
"#.#.#.#.#.[ [ N v M m m F X.X.oXXXh.L L E E ^.}.{.}.}.:X2X2X2X2X2X2X2X2X2X=X}._.] ' !.%X#XL L J A Y +X%X#X#X%X#X#X#X#X#X#X%Xp.A ",
"#.#.#.#.@.Z A M v v v v v v M n Z Z Z Z E E ^.}.[.[.[.:X2X2X2X2X1X1X2X1X2X-X}._.' ' !.%X+XA A J h.h.+X%X%X%X%X+X#X#X#X#X+X%X Xh.",
"#.#.#.#.@.n A M v v v v v v v Z Z Z Z A Z n [ | Q.[.[.{.{.=X=X=X=X=X=X{.=X^.] Q..XXXOX%X+XA A K h.k.+X%X%X+X%X%X#X%X#X#X%X%Xj.h.",
"#.#.#.#.@.n A H G o.G  .P G K K K K K K K P [ E ' [.}.}.[.[.[.].[.[.[.[.}.(.0 | #X#X#X#X+XK K h.h.k.+X%X%X%X%X%X%X+X%X%X%X%X+XoX",
"#.#.#.#.@.Z A K h.h.h.h.h.h.h.h.h.h.h.h.h.h.[ W W '.).`.[.[.{.[.[.[.[.).'.R.9 } #X#X#X#X#Xh.h.h.h.h.+X%X+X%X+X%X%X%X#X+X%X+X%X#X",
"#.#.#.#.@.Z n K h.h.h.h.h.h.h.h.h.h.h.h.h.h.k 7 s T.T.).[.{.[.{.{.{.].T.T.z d j #X#X#X#X+Xh.h.X.h.h.#X#X%X%X%X%X#X#X%X%X%X+X+X%X",
"#.#.#.#.@.Z n K h.h.h.h.h.h.h.h.h.h.h.h.h.h.k d s Y.T.).[.].{.[.[.{._.Y.Y.z f j #X#X#X#X+Xk.h.J A A +X%X%X+X%X+X#X#X%X+X%X%X#X%X",
"#.#.#.#.@.A A K h.h.h.h.h.h.h.h.h.h.X.h.h.h.X.P G ] ' R.Y.W.].{.[.{._.] ] !. X X#X#X#X#X#Xk.h.J A Y +X#X#X#X#X#X%X#X%X+X%X+X%X%X",
"#.#.#.#.@.A n K h.h.h.h.h.h.h.h.h.h.h.h.h.h.h.h.X.' ' C Y.Y.[.}.{.{.].' ' !.#X#X#X#X#X#X$Xh.h.F n A #X#X#X#X#X#X#X#X#X#X%X%XoXj.",
"#.#.!.#.@.A n K h.h.h.h.h.h.h.h.h.h.h.h.h.h.h.h.X.W j C Y.Y.).).).).).j j $.#X#X#X#X#X#X#Xh.h.F A A #X#X#X#X#X#X#X%X%X#X#X%Xj.h.",
"#.#.+.+.@.n A K h.h.h.h.h.h.h.h.h.h.h.h.h.h.h.h.P d s C Y.Y.T.T.T.T.C s 8 U @XXX XXXXXXX XX.X.G n A +X%X#X#X#X+X+XXXXXXXXXXXk.K ",
"          Z n K h.h.h.h.h.h.h.h.h.h.h.h.h.h.h.h.X.j 8 C Y.Y.Y.Y.Y.Y.Y.s 9 M Z Z v v v v v N N v v b #X#X#X#X#Xh.h.J n n v v N c ",
"          Z A K h.h.h.h.h.h.h.h.h.h.h.X.W } W } } '.).>X*X*X*X3X*X*X*X_.`.Q.W ] E ' v v v v j v v V $X%X#X#X#Xk.k.J n n c v v v ",
"          O.O.O.S B B B [ B S B B B B B E E E E ] ].}.:X2X2X2X2X3X2X3X{.{.Q.E E E ' } } [ [ } [ [ [ O.O.O.G Y Y Y G | +.@.{ { @.",
"          #.#.} v v v v v v v v ] v ] b b } Q.~./.-X;X:X2X2X2X2X2X2X2X;X;X/.~.~.b b | } } } } [ { { c c c v v n n O.#.#.!.#.#.#."
};
