/* XPM */
static char *result[] = {
/* columns rows colors chars-per-pixel */
"64 64 256 2 ",
"   c None",
".  c #2E3A3B",
"X  c #3E4C36",
"o  c #3C4B3B",
"O  c #37463E",
"+  c #404E36",
"@  c #4D4F38",
"#  c #445336",
"$  c #4A5B36",
"%  c #44563B",
"&  c #525C38",
"*  c #4E6139",
"=  c #576C36",
"-  c #596E36",
";  c #546938",
":  c #5B7136",
">  c #5D7439",
",  c #647A3B",
"<  c #617739",
"1  c #2C3C46",
"2  c #2E3E49",
"3  c #263943",
"4  c #323E47",
"5  c #483C47",
"6  c #573D48",
"7  c #593D50",
"8  c #663846",
"9  c #633C4A",
"0  c #693C49",
"q  c #683746",
"w  c #2F4149",
"e  c #2E4047",
"r  c #334345",
"t  c #314149",
"y  c #394A46",
"u  c #3B5548",
"i  c #374757",
"p  c #345454",
"a  c #385759",
"s  c #2D5159",
"d  c #3C685B",
"f  c #374E64",
"g  c #394D63",
"h  c #3E4B6C",
"j  c #2B5E6A",
"k  c #2A5968",
"l  c #335566",
"z  c #3B5365",
"x  c #3C5569",
"c  c #3C5A6A",
"v  c #375C67",
"b  c #2A567A",
"n  c #34537A",
"m  c #354F6F",
"M  c #27606B",
"N  c #2A626B",
"B  c #2E676D",
"V  c #3D6466",
"C  c #3D6A65",
"Z  c #336D6B",
"A  c #3D6C69",
"S  c #34646A",
"D  c #3E7363",
"F  c #36726B",
"G  c #39766B",
"H  c #3E7D6B",
"J  c #3F7967",
"K  c #2E6971",
"L  c #3B7B7D",
"P  c #397876",
"I  c #3F6971",
"U  c #494747",
"Y  c #455742",
"T  c #44445D",
"R  c #48435E",
"E  c #484756",
"W  c #594252",
"Q  c #584753",
"!  c #475559",
"~  c #5A5455",
"^  c #55494B",
"/  c #6C434D",
"(  c #76444B",
")  c #7C5649",
"_  c #62504F",
"`  c #4E6853",
"'  c #667942",
"]  c #656655",
"[  c #6F6649",
"{  c #494461",
"}  c #464765",
"|  c #445A69",
" . c #4A5D6C",
".. c #455765",
"X. c #505572",
"o. c #466B66",
"O. c #417D6B",
"+. c #447769",
"@. c #4C6373",
"#. c #436774",
"$. c #556778",
"%. c #516878",
"&. c #5A697B",
"*. c #526372",
"=. c #467C7B",
"-. c #467377",
";. c #566B65",
":. c #66726A",
">. c #615D61",
",. c #874B49",
"<. c #95594A",
"1. c #815751",
"2. c #88524A",
"3. c #A65C47",
"4. c #B85E44",
"5. c #8B6355",
"6. c #887F54",
"7. c #906456",
"8. c #BA6649",
"9. c #B96648",
"0. c #BE7751",
"q. c #AF684C",
"w. c #92736D",
"e. c #81746D",
"r. c #A47B6D",
"t. c #C47C52",
"y. c #6B823F",
"u. c #3F817C",
"i. c #6E8442",
"p. c #6E8548",
"a. c #748C44",
"s. c #718743",
"d. c #7B9347",
"f. c #7F9748",
"g. c #42826B",
"h. c #498E7C",
"j. c #468579",
"k. c #4A907F",
"l. c #819949",
"z. c #8B835E",
"x. c #B0885D",
"c. c #998C61",
"v. c #958676",
"b. c #B28B62",
"n. c #B08F70",
"m. c #CA905C",
"M. c #C6966D",
"N. c #C4A667",
"B. c #D6AB67",
"V. c #DBBC6E",
"C. c #D6B76E",
"Z. c #DBBD71",
"A. c #D7BA71",
"S. c #C7AC75",
"D. c #E1BE6F",
"F. c #E0BE71",
"G. c #DCC174",
"H. c #E2C173",
"J. c #2A5A85",
"K. c #275D89",
"L. c #285C89",
"P. c #295A84",
"I. c #365A8E",
"U. c #376C93",
"Y. c #3D70B2",
"T. c #475589",
"R. c #425894",
"E. c #48638F",
"W. c #487E81",
"Q. c #4F678E",
"!. c #476DB4",
"~. c #3C6ECA",
"^. c #3E6FD0",
"/. c #446AC8",
"(. c #4571DA",
"). c #4574E4",
"_. c #4877EA",
"`. c #4877F0",
"'. c #4878F2",
"]. c #487BF8",
"[. c #866E93",
"{. c #478986",
"}. c #4C9384",
"|. c #4C948C",
" X c #4F998D",
".X c #509A8F",
"XX c #50978E",
"oX c #4F9990",
"OX c #4E9790",
"+X c #509790",
"@X c #529E94",
"#X c #53A095",
"$X c #3B87C7",
"%X c #4393D4",
"&X c #4885F3",
"*X c #4896F5",
"=X c #458FE9",
"-X c #48A9FA",
";X c #48A5F6",
":X c #B0B095",
">X c #A1A189",
",X c #CEB38A",
"<X c #DBC686",
"1X c #E3CA88",
"2X c #E5D697",
"3X c #E0CD94",
"4X c #DFD9B1",
"5X c #D5CBA8",
"6X c #E6D5A8",
"7X c #E5DDB2",
"8X c #EBE4AF",
"9X c #E9E0A7",
"0X c #EDE9B6",
"qX c #EEE9B7",
"wX c #F1EEBE",
"eX c #F0F0BE",
"rX c #EBEAC1",
"tX c #F1F1C2",
"yX c #F6F5C9",
"uX c black",
"iX c black",
"pX c black",
"aX c black",
"sX c black",
"dX c black",
"fX c black",
"gX c black",
"hX c black",
"jX c black",
"kX c black",
"lX c black",
"zX c black",
"xX c black",
"cX c black",
"vX c black",
"bX c black",
"nX c black",
"mX c black",
"MX c black",
"NX c black",
"BX c black",
"VX c black",
"CX c black",
"ZX c black",
"AX c black",
"SX c black",
"DX c black",
"FX c black",
"GX c black",
"HX c black",
"JX c black",
"KX c black",
"LX c black",
"PX c black",
"IX c black",
"UX c black",
/* pixels */
"              &.&.%.N j N M N M N N a o X ; - > f.d.> > > > > d.d.d.f.y.- : d.d.& X u j B oX@X@X#X@X@X@X#X@X@X@X@X@X@X@XN M     ",
"              &.&.%.N j N j N M p X o r e o X $ > > d.d.f.f.a.> > > : ; X # : > u e s j K oX@X@X@X@X@X@X@X@X@X@X@X@X@XoXK M     ",
"N M N N N N   J -.-.J G F F F F d X X e e o X * : > d.d.f.f.a.: : : : * X # : : u 1 p G G oX#X@X@X@X@X@X@X@X@X#X#X@X@XoXv l j   ",
"M j N N N M M D g.g.g.g.g.g.g.g.d r y o O O r Y y.y.d.f.y., y.- : y.y., * * % o o O u g.g.#X#X@X@X@X@X#X@X@X@X@X@X@X@XoXx g l M ",
"N N N B N N j D g.g.g.g.g.g.g.g.d e r X # r t Y l.l.f.l.y.- : : > a.l.i.> = e e o + u g.g.@X@X@X@X@X@X@X@X@X@X@X@X@X@X+Xx g l j ",
"g.g.J u.u.g.g.g.g.g.g.g.g.g.g.g.d r y o o y r Y s.s.y.a.y., > > : a.f.a., > y r O o u N K @X@X@X@X@X#X@X@X@X@X@X@X@X@X+Xx f f f ",
"g.g.g.g.g.g.g.g.g.g.g.g.g.g.g.g.d X X t 2 o + + X X = - y.l.d.- : a.f.f.f.a.# X y 1 p j K oX@X@X#X@X@X@X@X#X@X@X@X@X@X+Xx g g g ",
"g.g.g.g.g.g.g.g.g.g.g.g.g.g.g.g.` + o t 2 o X X # # - > y.l.a.: : a.f.d.f.a.# X r 4 s Z P @X@X@X@X@X@X@X@X@X@X@X@X@X@XOXz g g g ",
"g.g.g.g.g.g.g.g.g.g.g.g.g.g.g.g.d t r e t o X $ : : y.d.y.> - # # a.f.i.> = r t t t p g.g.@X@X@X@X@X@X#X@X@X@X#X#X@X@XOXx g g g ",
"g.g.g.g.g.g.g.g.g.g.g.g.g.g.g.g.d w w w 2 o X $ : < f.f.y.- = + # s.f.i.- ; w 2 e e y u.g.@X@X@X@X@X@X@X@X@X#X@X@X@XoX|.x f g g ",
"g.g.g.g.g.g.g.g.g.g.g.O.g.g.g.g.d w w Y % % X X # % ` ` * $ % y O p.l.i.$ & ) ,.W 6 u M Z oX@X@X@X@X@X@X@X@XoXg.g.G B N g f  .&.",
"g.g.g.O.g.g.g.g.g.g.g.g.g.g.g.g.d w y - > $ X o 4 4 2 2 O + o t w p.f.' O @ 9.4.,.0 Q M K @X#X@X#X#X#X#X#X#XoXj.g.F j M g f X.&.",
"g.g.g.g.g.g.g.g.g.g.g.g.g.g.O.F a w t = : * % o 4 4 y y o + o t t ' , ' [ < t.t.2.0 Q l v U.L L -.-.-.-.-.-.-.V V S l l f g c #.",
"g.g.g.u.O.g.g.g.g.g.g.g.g.g.H j s 2 y = : : : * 2 t ; : $ + + t w o + l.D.D.F.F.7.0 7 g a N M l g f g g g g f g g g g g g g l M ",
"g.g.g.g.g.g.g.g.g.g.g.g.g.O.J N s 2 r = - - > * e t = : $ + + r t X X z.D.C.F.F.7.0 W h g j j l g g g g g g g g g f f g g g l M ",
"g.O.g.g.g.g.g.g.g.g.g.g.Z N N f f -.j.y y # # X t t ; : % t U <.3.b.N.c.,.7.C.F.0.3.<.9 / f f f g g g g g g z j N M M j z g g f ",
"g.g.g.g.g.g.g.g.g.g.g.g.F M j g g W. Xt w o + o t t = : % 2 U 8.t.B.F.b.0 ( C.Z.t.8.3.0 0 i z i g g g g g g g j j j M M i g g g ",
"d d V V A Z F A V V V V v l l g g W..X#.A u o r e t $ * y 1 ^ m.m.1X2Xv.5 _ 3X2X,X,Xr.0 / l k S A A V V A A A G G F F D A A v g ",
"g i g g f j j l g g g g f g g f g W.#X@X@Xv w t t t X X O 2 ! F.F.7XyX>X3 ! rXyXyXyX:X0 0 v M D g.g.g.g.g.g.g.g.u.g.g.g.g.g.o.f ",
"z z x x l K K v x z x x z z z f f W.#X@X@XV p i w t o X + U ] V.F.9XwX:XE :.rXtXyXyX,X9 7 S M D g.g.g.g.g.g.g.g.g.g.g.g.g.g.V g ",
"O.O.}.@X@XoX@XoX@X@X+X@Xh.O.H M k {.#X@X@X.X@Xj.t t 4 e 1.4.t.F.F.F.F.3XrXrXyXtXyXyX:X4 r H u.g.g.g.g.g.g.g.g.g.g.g.g.g.g.g.A g ",
"g.O.}.@X@X@X@X@X#X@X@X@Xh.O.H B j {.#X@X#X#X@X=.4 4 w 1 ) 4.t.F.F.F.F.3XyXtXtXtXyXyX:X4 r g.g.g.g.g.g.g.g.g.g.g.g.g.g.g.g.g.V g ",
"}.}.@X@X@X@X@X@X@X@X@X@X}.}.j.M M u.#X@Xh.h.h.+.6 7 2.<.,.,.<.t.t.C.F.F.H.1X1X1Xv.:.*.o.D g.g.g.g.g.g.g.g.g.g.g.g.g.g.g.g.g.C g ",
"@X@X@X@X@X@X@X@X@X@X@X@X@X@XOXM M {.#X.Xg.g.g.;.q 0 4.4.,.q 0 8.t.B.F.F.D.D.H.G.] 3 p g.g.g.g.g.g.g.g.g.g.g.g.g.g.g.g.g.g.g.V g ",
"@X@X@X@X@X@X@X@X@X#X@X@X@X@XOXB N j..X Xg.u.J ;.,.2.M.M.n.v.r.4.4.0.b.b.b.b.c.c.` p d g.g.g.g.g.g.O.g.g.g.g.g.g.g.g.g.g.g.g.C f ",
"@X@X@X@X#X@X@X@X@X@X@X@X@X@XoXg.u.g.g.H N N N ` 9.8.8XyXtXtX6Xt.t.0 q 0 0 8 2 2 d g.g.g.g.g.g.g.g.g.g.g.g.g.g.g.g.g.O.g.g.g.F j ",
"@X@X@X#X@X@X@X@X@X#X@X@X@X@XoXg.g.u.g.H M M j ;.8.0.8XtXeXtX6X0.t.,.0 ( 0 9 t t d g.g.g.g.g.g.g.g.g.g.g.g.g.g.g.g.g.g.g.g.g.F M ",
"@X@X@X@X@X@X@X#X@X@X@X@X@X@X@X}.h.}.}.h.F ~ 8 5.C.C.qXtXeXeX8XC.B.S.F.w.4 r O.O.g.g.g.g.g.g.g.g.g.g.g.g.g.g.g.g.g.g.g.g.g.g.F M ",
"@X@X@X@X@X@X@X@X@X@X@X@X#X@X@X#X.X#X#X.Xg.~ 8 5.Z.Z.0XtXtXtX8XG.Z.A.A.d.1 i u.g.g.g.g.g.g.O.g.g.g.g.g.g.g.g.g.g.g.g.g.g.g.g.F M ",
"#X@X@X#X@X@X@X@X@X@X@X@X@X@X@X@X@X@X@X.Xg.~ 8 5.Z.G.0XtXeXtX8XZ.Z.2X7X<Xc.z.p u D g.g.g.g.g.g.g.g.g.g.g.g.g.g.g.g.g.g.g.g.g.G N ",
"@X@X@X@X@X@X@X@X@X@X@X@X@X@X@X@X@X@X@X@X#X>.q 5.A.A.0XtXrXtX8XV.A.0XyX2XG.N.y e d u.g.g.g.g.g.g.g.g.g.g.g.g.g.g.g.g.g.g.g.g.g.g.",
"@X@X@X@X@X#X@X@X@X#X@X@X@X@X#X@X@X#X@X@X#X;.6 1.Z.G.0XtXtXtX8XN.N.8XeX9X1X,XU y o.g.g.g.g.g.g.g.g.g.g.g.g.g.g.g.g.g.g.g.g.g.g.g.",
"#XoX@X@X@X@X@X@X@X@X@X#X@X@X.X#X@X@X@X@X@Xd e ] G.A.0XtXtXtX6X9.8.6XtXtXtX4X/ 0 ;.g.g.g.g.g.g.g.g.g.D Z S V V Z Z A V V Z Z Z V ",
"#X#X@X@X#X@X@X#X@X@X@X@X#X#X#X.X@X@X@X#X@XV 1 ] G.G.0XtXeXrX3X9.4.6XtXtXtX4X/ 0 ` g.g.g.u.g.g.g.g.J M M l g g j M l g f j j l g ",
"#XoX@X@X@X@X@X@X@X@X@X@X@X@X#X#X@X.X.X.X+Xv 4 :.0X0XeXtX2XG.N./ ( 5XtXtXeX4X/ / o.g.g.O.J u.g.g.H J M M l g h j j k g z j j l g ",
"#X#X#X@X@X@X@X@X@X#X@X@X@X@X.X#X#Xh.g.g.g.p . :.tXtXtXtX2XA.N./ 0 5XtXtXtX7X/ 0 z N M N N N j M N N g p g f f g f l M N z g g g ",
"#X#X#XoX#X#X#X#X#X@X@X@XoX#X#X#X#Xh.g.g.g.! 5 e.tXtXtXtX2XC.N.8 0 S.2X2X2X<XU 5 E Q a N N N N M N N z g g g g g i l M M f g g g ",
"L P j.}.g.H L L L u.h.h.u.P U.u.L A v o.V Q q w.tXeXeXtX2XG.N.8 0 N.V.V.V.N.t w 6 0 Q l l l l l l l g g l k j v l Z G G k l l k ",
"M M G u.u.M M M M B u.g.Z j j j j l g g g W 6 w.tXeXtXtX2X1XS.1.1.b.B.S.:X>Xy w 6 0 W g g g g g g g g i l M N N N G g.g.N j B M ",
"B M D u.D j j j j N J J Z j j j j l z g z W q w.tXtXtXeXtXtX8XA.C.m.4.[.`.(.i w 6 0 W g g g g g z z c c S K K K K P g.u.B B B M ",
"g.g.Z M j g z f g g g g g g f g f k M B H ~ 8 w.eXwXeXtXeXtX0XA.C.0.4.[.].(.i t W 0 W T g g g A g.g..XoXoX@X.X.XoX#X#X.Xg.g.G M ",
"g.g.Z N j g g g g g g g g f g g f l j B u.u 4 ] 1X<X0XeXtXtX6Xt.0._ @ Q.;X*X%X%XX.0 W z f g g A g.g.oX#X#X#X#X@X#X#X#XoXg.g.F M ",
"o.o.c l l g g g g x W.W.W.W.W.W.W.{.u.{.}.a 4 ] D.H.qXtXtXtX6X8.8.U 3 U.-X-X-X-X&.q ~ W.=.l k S F P oX#X#X#X@X#XoXoX#XoX}. XP M ",
"! o.x g g g g g g c @X@X@X#X@X#X@X#X@X#X#X=.G ;.z.6.,X,X3X2X,X8.8.U 1 U.-X;X-X-XT.7 *.#X@XN N N M K .X@X@X@X@X@X#X#X#X#X#X#XL j ",
"@.X.....z g ..g g c @X@X@X@X@X@X@X@X@X@X#X@X@Xj.1 4 3.4.m.G.B.8.8.U . U.-X-X-X-XQ.7 @.@X|.K N N M N @X@X@X@X@X@X@X@X#X@XoX#Xu.M ",
"&.&.$.&.$. . .z g c @X@X@X@X@X@X@X@X@X@X@X@X@X{.t t <.3.b.N.n.3.3.! s Y.-X-X-X-XE.R @.@X.Xg.g.F M K @X@X#X@X@X@X@X@X@X@X#X#Xu.M ",
"&.$.&.&.$. . ...f c #XoX#X@X@X@X@X#X@X@X#X#X@X=.4 w r t y y 4 4 t %X;X;X-X-X-X-XE.R @.@X@Xg.g.F j K oX@X@X@X@X@X@X@X@X@X@X#XU.B ",
"&.&.&.&.$. . .g g l L L j.h.}.@X@X}.h.h.h.j.j.V t t 4 w 4 4 2 2 t %X-X-X-X-X-X-XE.R @.@X Xg.g.F M N @X@X@X@X@X@X#X@X@X@X@X@Xu.M ",
"&.&.&.&.$. . ...g z j M G g.g.#X#Xh.g.g.g.g.Z k s k i E I././././._.&X&X&X&X&X&XT.R @.@X@Xg.g.Z j K oX@X@X@X@X@X@X@X@X@X@X#Xu.M ",
"&.&.&.&.$.@.| z f f k k A H =.}.}.j.H H H H Z M N M { R !.].].`.'.`.`.`.'.'.'.'.T.R @.@X@XO.O.F B K oX@X@X@X@X#X@X@X@X@X@X#X{.N ",
"&.&.&.&.%.M j l f g g g g g l N N N N N N N N M j g i 5 I.~.^.`.`.'.`.`.'._.~.~.T.R @.@X|.N M G g.g.@X@X@X@X@X@X@X@X#X@X@X#Xh.H ",
"&.&.&.&.%.M M l g g g g g f f N M N M N N N j M j f w 2 b K.I.`._.'.`.`.'.).L.L.h R @.@X@XN M F g.g.@X@X#X@X@X@X@X@X@X@X@X@Xh.g.",
"$.&.&.&.%.N M Z D D o.o.D A G G G G G G G G G G F C t t m K.U.).)._._.).).(.J.J.x { @.@X.XG G H g.j.oX@X@X#X@X@X@X#X@X@X@X@X X}.",
"&.&.&.&.%.N j J g.g.u.g.g.g.g.g.g.g.g.g.g.g.g.D t t R R n K.L.L.L.L.L.J.} h 2 2 =.@X@X@X@Xg.g.g.g.g.@X#X@X@X@X@X@X@X@X@X@X@X@X#X",
"&.&.&.&.%.N j G g.g.g.g.g.g.g.g.g.g.g.g.g.g.=.C t 4 { R m K.L.K.L.L.L.n 7 { 4 4 j.@X@X@X@Xg.g.O.u.g..X@X@X@X@X#X@X@X@X@X@X@X@X@X",
"&.&.&.&.%.N M G g.g.g.g.g.O.o.....o.! a p p a ..T i n n J.K.K.J.L.L.L.m i i =.=.+X@X@X@X@Xg.g.F N B .X@X@X@X@X@X@X@X@X@X#X@X@X@X",
"&.&.&.&.$.M j G g.g.g.g.g.g.! T R R 7 2 2 2 2 4 { { J.K.L.J.L.L.L.L.K.k 2 i @X#X@X@X@X@X+X=.g.F j K @X@X@X@X@X#X@X@X@X@X@X@X@X#X",
"&.&.&.&.%.M M G g.g.g.g.o.o.T.T.T.T.T.2 2 i 2 2 h h J.L.L.L.J.n n b b m a V @XoX@X@X@X@X.Xg.g.F j K oX@X@X@X@X@X@X#X#X#X@X#X}.h.",
"&.&.&.&.%.M M H g.g.g.+.{ { /.&X`.`.).i 4 i { h L.L.J.L.J.K.J.{ R t t A #XoX#X#X@X@X@X@X@Xg.g.Z j K oX@X@X@X@X@X@X#X#XoX@X#X}.u.",
"&.&.&.&.%.N M G g.g.g.+.{ { /.].`.`.(.2 2 } { X.L.L.L.J.J.L.b { T t r o.oXOX|.}.|.|.|.|.}.+.+.Z j M @X@X#X@X@X X X|.|.|.|.}.j.D ",
"          N j G g.g.g.D t t /.].!.} } J.b ~.).).).(.X.h } } T t 2 f a H g.F M M g g g g g g g g g x oX@X@X@X@Xg.g.F M N g g z f ",
"          M M G g.g.g.+.t t /.].!.5 } J.P./.`.`.'._.X.5 { { T 2 4 i z H g.F M M g g g g g g g f g x @X#X@X@X@Xg.g.F M M g g g f ",
"          #.@.#.V V c c a p I.I.!.$X!.$X$X=X*X*X*X*Xm 2 i ..g i i g z K Z #.%.#.@.@. ...| | | ..| | #.I #.#.#.Z Z I @.%.@.*.@.X.",
"          &.&.| g i g g g } 4 . U.-X-X-X-X;X-X-X-X*Xg 2 i g g g g g z j j #.&.&.&.&.*. . . . . . . .g g f f f M j #.&.&.&.&.&.&."
};
