/* XPM */
static char *result[] = {
/* columns rows colors chars-per-pixel */
"64 64 256 2 ",
"   c None",
".  c #3E4C36",
"X  c #38473F",
"o  c #3C4B3A",
"O  c #33423B",
"+  c #404E36",
"@  c #435236",
"#  c #4A5B36",
"$  c #4A5C3A",
"%  c #44543B",
"&  c #4F6136",
"*  c #4E623A",
"=  c #526536",
"-  c #556936",
";  c #596F36",
":  c #52653B",
">  c #576B3A",
",  c #5B7136",
"<  c #5E7339",
"1  c #657B3C",
"2  c #2D3D45",
"3  c #2E3F49",
"4  c #273A45",
"5  c #3B3F48",
"6  c #313F46",
"7  c #443E48",
"8  c #563D48",
"9  c #5C3C47",
"0  c #663947",
"q  c #663C48",
"w  c #693C48",
"e  c #673946",
"r  c #733F46",
"t  c #2F4048",
"y  c #2F4047",
"u  c #344344",
"i  c #314149",
"p  c #384847",
"a  c #2E4A56",
"s  c #384858",
"d  c #35545A",
"f  c #2D595D",
"g  c #3B6B5D",
"h  c #2D4C61",
"j  c #364D64",
"k  c #394C63",
"l  c #3E4D6A",
"z  c #2B5E6A",
"x  c #2A5B65",
"c  c #335566",
"v  c #3C5365",
"b  c #3C5E65",
"n  c #3B5568",
"m  c #395B6A",
"M  c #2B577E",
"N  c #35547C",
"B  c #2A626B",
"V  c #29626C",
"C  c #3D6567",
"Z  c #3E6A66",
"A  c #336D6B",
"S  c #3D6D68",
"D  c #356669",
"F  c #3E7263",
"G  c #36726B",
"H  c #39766B",
"J  c #3D7C6B",
"K  c #3B7C7D",
"L  c #397876",
"P  c #326971",
"I  c #44454A",
"U  c #4A554C",
"Y  c #48435D",
"T  c #43465D",
"R  c #5B5353",
"E  c #574A52",
"W  c #69424B",
"Q  c #774649",
"!  c #7A544D",
"~  c #65575C",
"^  c #7B5656",
"/  c #634A53",
"(  c #46624B",
")  c #586257",
"_  c #41755E",
"`  c #464561",
"'  c #484561",
"]  c #454B62",
"[  c #474C68",
"{  c #4A5D6C",
"}  c #465868",
"|  c #4E4F70",
" . c #6E5763",
".. c #446A68",
"X. c #427C6A",
"o. c #457366",
"O. c #4C6375",
"+. c #416774",
"@. c #556778",
"#. c #516878",
"$. c #5A697B",
"%. c #477577",
"&. c #586C67",
"*. c #656F70",
"=. c #766853",
"-. c #905948",
";. c #9E5647",
":. c #84544D",
">. c #A65B48",
",. c #B65E43",
"<. c #9A755A",
"1. c #8D6A58",
"2. c #A7614A",
"3. c #BB6246",
"4. c #BA6548",
"5. c #BA6B4B",
"6. c #AF7856",
"7. c #8E716C",
"8. c #A57F61",
"9. c #C27C54",
"0. c #6A813E",
"q. c #3F827F",
"w. c #6E8541",
"e. c #748B44",
"r. c #748B43",
"t. c #7B9346",
"y. c #7E9648",
"u. c #7F9849",
"i. c #42826B",
"p. c #498E7C",
"a. c #458678",
"s. c #51867E",
"d. c #809949",
"f. c #93835E",
"g. c #BF8659",
"h. c #858E7D",
"j. c #8D9476",
"k. c #B79764",
"l. c #AB966A",
"z. c #BBA177",
"x. c #C78B5A",
"c. c #C58D6A",
"v. c #C5A669",
"b. c #D6BA6E",
"n. c #DABD6E",
"m. c #D3B36C",
"M. c #D2A47C",
"N. c #D9BE71",
"B. c #D6BC70",
"V. c #CFAB6E",
"C. c #DBC074",
"Z. c #DAC37D",
"A. c #265A85",
"S. c #2A5D8A",
"D. c #285A87",
"F. c #39678A",
"G. c #2D689B",
"H. c #396F90",
"J. c #2E6CA0",
"K. c #3769B7",
"L. c #3272AA",
"P. c #485997",
"I. c #4E5680",
"U. c #4E7981",
"Y. c #687F81",
"T. c #485CA3",
"R. c #447FBA",
"E. c #386BC0",
"W. c #476ED3",
"Q. c #4572D9",
"!. c #4676E9",
"~. c #4879F1",
"^. c #4777F2",
"/. c #4B8683",
"(. c #4B8C85",
"). c #4D8E8A",
"_. c #568A85",
"`. c #4C9384",
"'. c #4D938C",
"]. c #4F998D",
"[. c #52978E",
"{. c #4F9990",
"}. c #4E9790",
"|. c #509790",
" X c #529E94",
".X c #698083",
"XX c #53A095",
"oX c #7A8FBB",
"OX c #4395D9",
"+X c #478ACF",
"@X c #7C91C2",
"#X c #4882F3",
"$X c #488CF2",
"%X c #4897F5",
"&X c #4496E9",
"*X c #47A5F5",
"=X c #48A3F7",
"-X c #48A6F8",
";X c #48A8F8",
":X c #48A8F7",
">X c #BEAD8C",
",X c #CDB492",
"<X c #CBBFA0",
"1X c #DEC983",
"2X c #DECA89",
"3X c #DCC396",
"4X c #E1CF8C",
"5X c #E3D394",
"6X c #E5D89A",
"7X c #E2CD95",
"8X c #D8D5AD",
"9X c #D8D4AD",
"0X c #E6D7A7",
"qX c #EAE3AC",
"wX c #E8E0A7",
"eX c #EEECBB",
"rX c #ECE8B5",
"tX c #F0EFBF",
"yX c #F0F0BF",
"uX c #F1F1C1",
"iX c black",
"pX c black",
"aX c black",
"sX c black",
"dX c black",
"fX c black",
"gX c black",
"hX c black",
"jX c black",
"kX c black",
"lX c black",
"zX c black",
"xX c black",
"cX c black",
"vX c black",
"bX c black",
"nX c black",
"mX c black",
"MX c black",
"NX c black",
"BX c black",
"VX c black",
"CX c black",
"ZX c black",
"AX c black",
"SX c black",
"DX c black",
"FX c black",
"GX c black",
"HX c black",
"JX c black",
"KX c black",
"LX c black",
"PX c black",
"IX c black",
"UX c black",
/* pixels */
"              $.$.#.B B B V f @ + = ; 1 y.y.t.y.w.; ; ; ; 0.d.t.t.t.0., 1 1 ; 0.u.r.; ; # . (  X X X X X X X X{.XXXX X{.V V     ",
"              $.$.#.z z z z x . + @ + # < , # # @ + @ > , , , 1 1 , 0.y.0.d.y.0.< ; @ @ + . (  X X X X X X X XXX{.XX X{.P V     ",
"V z B B V z   o.%.%.H H G G g + + + . # , , @ + . . + > , ; , ; ; ; 0.d.d.d.d.1 - - + o . + (  X X X X X X X X XXXXX{.{.m c x   ",
"V B B B V V V H i.i.i.i.i.i._ X X o + @ & # & # : < 1 ; , ; , , ; ; 1 0.0.d.d.0.w.1 @ + # # ( o.+.}. X XXX X X XXX XXX].n j c V ",
"B V V V V A V H i.i.i.i.i.i.F i 3 o + + + + > ; 1 d.d.1 ; ; ; ; ; ; ; , 1 d.d.d.d.e.@ + - , * i i /. X X X X X X X X X|.v j c V ",
"J i.J i.J i.J i.i.i.i.i.i.i.F 6 6 o + + @ @ ; , 1 t.t., ; ; ; 1 1 , 1 , 1 0.d.0.e.w.+ + = , : i y /. X XXX X XXX X X X|.v j j j ",
"i.i.i.i.i.i.i.i.i.i.i.i.i.i.F 6 3 o + # ; ; r.d.r., 1 ; ; 0.d.t.0.d.t.t.t., 1 = @ @ @ . = , * i t /.XX X X X X X X X X|.n k k k ",
"i.i.i.i.i.i.i.i.i.i.i.i.i.i.F i 6 o . # , ; t.d.r.; ; ; ; 1 d.y.d.d.y.d.t.; ; # . . . . - , : 3 i /.XXXX X X X XXX X X[.v k k j ",
"i.i.i.i.X.i.i.i.X.i.i.i.i.i.F o p # = - ; ; > > : # & 0.w.e.y.y.d.d.0.0.1 w.r.; = # @ + # # % i t /. X X X X X X X X X}.n k k k ",
"i.i.i.i.i.i.i.i.i.i.i.i.i.i._ + + - ; , ; , @ + . + + e.u.y.y.y.d.y.0., < u.d.0.; - + + . . o t t /. X X X X X X]. X}.).n k l j ",
"i.i.i.i.i.i.i.i.i.i.i.i.i.i._ . + * - - > > @ + @ $ $ t.u.t.e.t.t.d.1 - ; e.e.< - = @ @ @ . o i i /. X X X X Xi.i.H V P j k { $.",
"i.i.i.i.i.i.i.i.i.i.i.i.i.i.F 3 3 6 3 u + + + + > u.y.u.d.0., < t.d.< + o @ @ @ + @ , , # . o i t /.XXXXXXXX XX.i.H V V j k { $.",
"i.X.i.i.i.i.i.i.i.i.i.i.i.i.F 3 3 3 3 u + + + . > d.d.y.u.w.; < y.d.) + + + . . + @ , , # + o t i C %.%.%.%.%.C C D c c j k n +.",
"i.i.i.i.i.i.i.i.i.i.i.i.i.X.F o o # & $ + + & & : : : : : > , ; : - # + @ = - % u p @ # o u i d s j j j k k j j k k k k k k c V ",
"i.i.i.i.i.i.i.X.i.i.i.i.i.i.g + + - 1 = + + - 1 & o + + . # , , + + + + @ ; , o i i . . u i a c k k j j k k k v k j j k l k c V ",
"i.i.i.i.i.i.i.i.i.i.i.i.A V f o . # = = @ @ = = $ + + + . # - = + + + + @ = - @ u X o . u i i k k k k l k k j z z B B z k j j j ",
"i.i.i.i.i.i.i.i.X.i.i.i.G V x 6 6 o + # ; ; @ @ + + + + + + + . + + + + + + + + + . 3 i i i i s k k k k k k j z V z V z j k k k ",
"C C C C Z G G D C ..C C m c c i 3 o + # ; ; @ + . + + + + + + . + + + + + + + + + o i y 6 i a D C Z C ..Z S Z G G G G H S Z b k ",
"k s j k j V B c k k k k j j s s s p i u p p + + + + + = - - - = + + # - - + + X i u 6 i f x x G i.i.i.i.i.i.i.i.i.i.i.i.i.i.C k ",
"v v n n m P V m n n v n v v c j j d t t i i o + + . @ ; , , , , + + = , > + @ u 3 i 3 6 f B B G i.i.i.i.i.i.i.i.i.i.i.i.i.i.C k ",
"J i.(. X{.{.{. X]. X]. Xa.X.J B z T 7 5 i i o o o . + $ $ = = & o X # = $ o o u i u 7 7 g X.i.i.i.i.i.i.i.i.i.i.i.i.i.i.i.i.Z j ",
"i.i.`. X X X X X X X XXXp.i.J B z ~ w 8 i i 3 3 X + . i 3 u . . u 3 X + + 3 3 3 3 5 w e &.i.i.i.i.i.i.i.i.i.i.i.i.i.i.i.i.i.C k ",
"`.`. X X X X X X X XXX X`.`.a.B z R W / p p i u o . + i i u + . i 3 X + + u u i s I W W ..i.i.i.i.i.i.i.i.i.i.i.i.i.i.i.i.i.Z k ",
" X X X X X X X X X X X XXXXXs.W / >X8X9X9X8X6.>.! i u o + X u u o + X 6 p 2.>.,X8X8X8X8X7./ R i.i.i.i.i.i.i.i.i.i.i.i.i.i.i.C k ",
" X X X X X X X X X X X XXXXXs.e 0 9XuXuXuXuX9.3.-.4 4 X + O 2 2 . . u 4 p ,.3.3XuXuXuXuX7.e E i.i.i.i.i.i.i.i.i.i.i.i.i.i.i.Z j ",
" X X X X X X XXX X XXX Xs.$.*.<.<.9XuXuXuXeX,XM.z.7.h.j.j.j.h.h.j.j.j.j.j.>XM.7XuXtXuXuXz.<.1.) ) X.i.i.i.i.i.i.i.i.i.i.i.i.G z ",
" X X X X X X X X X X X XR W :.N.N.qXuXuXuXuXuXuXuXuXuXuXuXuXuXuXyXyXuXuXuXuXuXuXtXuXuXuX4XN.v.e w o.i.i.i.i.i.i.i.i.i.X.i.i.G V ",
"XX X X XXX X X X X X[. X .W 1.C.N.qXuXrXeXeXuXuXuXuXuXuXuXuXuXuXyXyXyXuXuXeXeXtXeXeXtXuX4XN.v.W Q ) X.X.i.i.i.i.i.i.i.i.i.i.G z ",
" X X X X X X X X X_./ W l.V.N.eXuXuXuXqXC.N.N.N.6XuXuXuXuXeXuXuXuXtXuXuXrXC.C.C.C.4XtXyXeXyX0XV.m.=.q R i.i.i.i.i.i.i.i.i.i.G V ",
" X X X X XXX X X X_.q q k.n.4XuXuXuXuX0XC.C.B.B.5XuXuXuXuXuXuXuXtXuXuXuXeXC.C.C.n.Z.tXuXyXuXqXn.C.^ q R i.i.i.i.i.i.i.i.i.i.G V ",
" X XXX X X X XXX X_.W q z.6X0XyXuX,X,Xc.<.<.x.x.V.5X5XeXuXqX5X6XtXuXwX5X7Xx.x.6.1.8.M.,X0XuXrX6X9X1.0 R i.i.i.i.i.i.i.i.i.i.i.i.",
" X X X X X X X X X_.q 0 <XuXuXyXuX9.,.;.e e >.3.x.n.N.rXuX6Xb.N.eXuX4Xn.V.3.3.:.e r ,.,.7XuXuXuXeX1.e R i.i.i.i.i.i.i.i.i.i.i.i.",
" X X X X X X X X_._. .^ <XuXuXuXuXc.5.>.e w >.>.9.n.C.qXeX5Xb.C.qXeX7Xn.m.,.,.:.e Q 5.5.3XuXuXuXuX7.^  .C } C A G D C C A A A C ",
" X X X X X X X~ q ^ rXeXuXuXeXuXuX1Xb.k.e w w e <.C.n.C.C.B.N.B.N.n.n.n.V.r e 0 e ! B.B.qXuXeXuXuXeXuX,Xq q s B B c k k x z c k ",
" XXX XXX X XXX&.0 1.uXuXuXuXeXuXtX4Xn.k.w w e e <.n.n.n.n.n.n.n.n.C.n.C.V.W e w e ! B.B.0XuXuXuXuXuXuX<X0 q s x B c v c z z c k ",
" X X X X X XXX .0 ^ 2X2XqXuXuXuXtX1Xn.l.7 7 e e  .*.s.oX@X@X@XoXY.Y.Y.Y.*.w w 8 7 R n.N.qXuXuXuXuX6X2Xz.q w ] v k c V z k j j k ",
"XX X X X XXXXX&.0 Q B.B.wXuXuXuXtX1Xn.l.4 i 9 e ' A.S.!.^.!.^.!.S.A.A.A.S.q w 7 4 U B.N.qXuXuXuXuX1Xb.k.e e T j k c V z k j k k ",
"K K a.p.a.K K ] 9 ^ B.B.6XqXqX0X0XM.k.f.t t |  .I.L.J.!.#X#X#X~.L.J.J.J.H.E / 7 3 U v.k.3X0X0XqXqX1Xb.l.9 9 v x x D G G m x c x ",
"V V H i.J V V a t E m.B.n.n.v.4.3.Q W E y t W.^.$X:X:X;X;X;X:X;X=X=X;X;X%XS.S.h 6 5 q q >.4.6.n.B.B.N.l.O t x B V G i.i.B V V V ",
"V V H X.H V z a t U B.N.n.n.V.3.3.Q e 8 y t W.^.$X;X;X;X-X;X;X;X-X-X;X;X&XS.S.h 6 5 q q >.3.9.B.B.B.N.l.2 y B P P H a.i.A V V V ",
"i.i.A V z j k s s s ) ) <.9.9.3.3.Q w 8 y t OX%X=X;X-X;X:X;X;X;X;X-X;X;X-XOX&XF.2 5 e e ;.4.5.9.x.=.) &./.a.{. X X{. X{.i.i.G V ",
"i.i.A V z k j j k k 6 3 -.9.3.4.,.:.e 9 y i OX;X;X;X;X;X;X;X-X:X;X;X;X;X;X;X;XH.2 5 e e >.3.3.3.3.I y d XX X X X XXXXX{.i.i.G V ",
"....m c c k j l k v d d Q -.-.-.-.W 9 7 i i OX;X;X;X;X;X-X;X;X;X;X;X;X;X-X;X-XH.2 5 9 8 ! -.-.-.-.U f %.{.XX X X X X X X`.].L z ",
"{ { } k k k k k j }  XXXd u 2 y 2 2 y u i i OX;X;X:X;X;X;X:X;X;X;X;X;X-X;X-X;XF.2 i y y y y y y 2 x {.XX{.XX X X X X XXXXXXXK z ",
"{ { } } v k ] v j m  X XC i i i i 6 3 3 i i OX;X;X;X;X;X:X;X-X;X;X;X;X:X;X-X;XH.2 i i i i i 6 y 5 x ]. X XXX X X XXX X X{.XXq.V ",
"$.$.@.@.@.{ { n l n  X X`.(.(.(.(.(.).%.` T Q.#X$X;X;X;X;X;X;X;X;X-X;X;X*X#X~.P.I ] (.(./.J J D x B  X X X X X X X X XXXXXXXH.z ",
"$.$.$.$.@.{ { v j n  X X X XXX X X X X_.' ' Q.~.$X;X;X;X;X;X;X;X;X;X:X;X=X^.^.P.Y |  X X].i.i.G V V  X X X XXX X X X].XX XXXq.V ",
"$.$.$.$.@.{ } } j n L L a.p.(. X X`.p.%.' ' W.~.#X%X%X-X;X-X;X;X;X;X;X-X=X^.^.G.Y }  X X].i.i.H B B  X X X X X X X XXX X X].q.V ",
"$.$.$.$.@.{ { } k j z z G i.a. X Xp.X.o.` ` W.^.~.^.~.%X:X:X;X;X;X;X;X;X=X~.~.P.Y |  X X Xi.i.G z P {.XX X X X X X X X X XXXH.V ",
"$.$.$.$.@.{ ..k k j x x G X.X.'.}.a.J ..' ` W.!.^.~.~.=X:X:X:X-X-X-X;X;X%X!.^.P.Y }  X X XJ J G V P {. X X X XXX X X X XXXXXq.A ",
"$.$.$.$.#.B B c k k k k k j v V V V B B z z | [ T.~.~.~.~.~.~.~.~.#X~.~.!.| | U.].[. X X].V V G i.i. X X X X X X XXX X X XXXp.i.",
"$.$.$.$.#.B B c k k k k k k j V V z V V V z k Y P.~.~.~.~.~.~.^.~.~.~.~.Q.[ ' U. X X X X XV V G i.i. X XXX X X X X X X X X Xp.i.",
"$.$.$.$.#.B B D o...H ..S F H H H H H H H H s p | E.E.!.~.~.~.~.~.~.W.K.K.s p %. X X X X].H H X.i.a. X X X X X X XXX XXX X{.].`.",
"$.$.$.$.#.B B H i.i.i.i.i.i.i.i.i.i.i.i.i.i.p 2 h S.D.!.~.~.~.~.~.~.K.D.M u 3 %. X X X X Xi.i.i.i.i. X X X X X X X X XXX XXXXXXX",
"$.$.$.$.#.B z H i.i.i.i.i.i.i.i.i.i.i.i.i.i.d u h S.S.Q.!.!.^.~.~.~.K.A.M s a %. X XXX X Xi.i.X.J i.{.XX X X X X X XXX{.XX XXX X",
"$.$.$.$.#.B V G i.i.i.i.i.X.i.i.i.i.i.i.i.i.X.X.Z ` ` S.D.K.^.^.~.~.T.Y [ ].]. X X X X X Xi.i.G V A {. X X X X X X XXXXX{. X X X",
"$.$.$.$.#.V V H i.i.i.i.i.i.i.i.i.i.i.i.i.i.i.i...' Y A.D.K.~.~.~.~.T.8 |  X X X X X X X Xi.i.G V V  X X X X XXX X X{.XXXXXXXXXX",
"$.$.$.$.#.V V H i.i.i.i.i.i.i.i.i.i.i.X.i.i.i.i...p s M D.G.K.K.K.K.D.5 s  X X X X X X X Xi.i.A z P {. X X X X XXX XXX XXX{.].a.",
"$.$.$.$.#.z z G i.i.i.i.i.i.i.i.i.i.i.i.i.i.i.X.g 2 3 M D.A.A.A.A.D.h 3 s  X X X X XXXXX Xi.i.A V V {. X X X X X XXX XXX{.XXp.i.",
"$.$.$.$.#.V V H i.i.i.i.i.i.i.i.i.i.i.i.X.o.X.X.b k k G.G.G.G.G.G.G.M k j /././././.).).).X.X.D z P  X X XXX X{.].'.'.'.'.).a.J ",
"          V z H i.i.i.i.i.i.i.i.i.i.i...' Y Y Y P.^.!.%X:X:X=X:X:X:X$X~.Q.' ' ' Y T j j l k j j k n }. X X X Xi.i.G V z v j k k ",
"          V V H i.i.i.i.i.i.i.i.i.i.i.o.Y Y Y 7 P.~.~.-X;X;X:X:X:X:X$X~.!.' Y ' Y Y k k k k k j k n  X XXXXX Xi.i.G z x j j j k ",
"          O.O.{ C b b b b b b ] ] ] ] v M N +X+XOX%X%X-X;X;X;X;X:X:X=X%X%X+X+XH.N N [ ] ] ] ] } } } +.+.+.+.+.P A S @.O.O.O.O.O.",
"          $.U.} k k k k k k k Y ' Y Y l S.S.&X;X;X;X;X;X;X;X;X;X;X;X;X;X;X;X;XK.A.M Y Y Y Y ] { { { k k k j j z z +.$.$.$.$.$.$."
};
