/* XPM */
static char *result[] = {
/* columns rows colors chars-per-pixel */
"64 64 256 2 ",
"   c None",
".  c #374E64",
"X  c #394D63",
"o  c #275F6A",
"O  c #2B5E6A",
"+  c #2E5867",
"@  c #325566",
"#  c #3B5365",
"$  c #335A67",
"%  c #3C5F66",
"&  c #3D5568",
"*  c #315A69",
"=  c #3C5B6B",
"-  c #27606B",
";  c #2A626B",
":  c #2F696E",
">  c #3D6567",
",  c #3E6A67",
"<  c #33646B",
"1  c #3E6769",
"2  c #326D6B",
"3  c #3D6D68",
"4  c #36726B",
"5  c #39766B",
"6  c #3E7C6B",
"7  c #2E6971",
"8  c #2F6670",
"9  c #336671",
"0  c #336A73",
"q  c #3F6971",
"w  c #3C6F79",
"e  c #397471",
"r  c #3A7973",
"t  c #38777A",
"y  c #3B7B7D",
"u  c #377574",
"i  c #43566C",
"p  c #435A6B",
"a  c #4A5D6C",
"s  c #4C5F73",
"d  c #475C72",
"f  c #456C6A",
"g  c #41626B",
"h  c #417C6A",
"j  c #436573",
"k  c #4C6375",
"l  c #426974",
"z  c #4E6679",
"x  c #556778",
"c  c #516879",
"v  c #5A697B",
"b  c #526372",
"n  c #4C7474",
"m  c #44737A",
"M  c #44797D",
"N  c #467872",
"B  c #3F817C",
"V  c #42826B",
"C  c #458571",
"Z  c #488672",
"A  c #4B8A74",
"S  c #44867A",
"D  c #478A7B",
"F  c #498D7B",
"G  c #518E7C",
"H  c #4A907F",
"J  c #54917E",
"K  c #5A937E",
"L  c #3D7F80",
"P  c #546C80",
"I  c #467B83",
"U  c #487E81",
"Y  c #487481",
"T  c #597785",
"R  c #527C84",
"E  c #5C7B8B",
"W  c #5C7688",
"Q  c #617B8D",
"!  c #438383",
"~  c #4A8382",
"^  c #4C818A",
"/  c #4D8F8A",
"(  c #478B82",
")  c #508A84",
"_  c #538A8B",
"`  c #528487",
"'  c #4C9384",
"]  c #4C948C",
"[  c #4F998D",
"{  c #539382",
"}  c #5B9584",
"|  c #509A8E",
" . c #5D9889",
".. c #5C9789",
"X. c #558B93",
"o. c #5A8C95",
"O. c #548590",
"+. c #4F9990",
"@. c #4E9790",
"#. c #519691",
"$. c #529E94",
"%. c #5F919B",
"&. c #65968D",
"*. c #698895",
"=. c #768594",
"-. c #778896",
";. c #798695",
":. c #659E93",
">. c #6C959D",
",. c #67909C",
"<. c #7C929D",
"1. c #53A095",
"2. c #56A298",
"3. c #5AA49B",
"4. c #64A194",
"5. c #69A294",
"6. c #63A49C",
"7. c #6FA69B",
"8. c #70A79F",
"9. c #71A99D",
"0. c #699BA4",
"q. c #729BA3",
"w. c #7C9CAB",
"e. c #799BA1",
"r. c #5FA8A0",
"t. c #63A8A0",
"y. c #69ACA6",
"u. c #6DA0A8",
"i. c #6BAEA9",
"p. c #67A4A2",
"a. c #76ACA3",
"s. c #72A2AB",
"d. c #7DA2AC",
"f. c #75AAA4",
"g. c #6DB1AB",
"h. c #79B0A7",
"j. c #74B2AC",
"k. c #7DB3AC",
"l. c #77A8B1",
"z. c #75B5B1",
"x. c #7EBCBA",
"c. c #78B8B4",
"v. c #809FAE",
"b. c #8197A1",
"n. c #88ACAF",
"m. c #87AAB5",
"M. c #96ABB3",
"N. c #86BAB5",
"B. c #88BCB6",
"V. c #82B2B9",
"C. c #80BEBB",
"Z. c #8CBEBC",
"A. c #8EB1BE",
"S. c #A4B9B7",
"D. c #84C1BF",
"F. c #90C2BF",
"G. c #8EBDC5",
"H. c #93BAC5",
"J. c #91BFC8",
"K. c #9ABECA",
"L. c #86C1C0",
"P. c #8AC4C3",
"I. c #8FC8C8",
"U. c #95C6C4",
"Y. c #94C3CA",
"T. c #9DC4CE",
"R. c #93CACB",
"E. c #9ACACA",
"W. c #9CCCD2",
"Q. c #9FD2D5",
"!. c #B3CBCA",
"~. c #B6C9C8",
"^. c #B0D4CF",
"/. c #A2CAD4",
"(. c #A4D4D6",
"). c #A4D5D9",
"_. c #ABD3DC",
"`. c #ABD9DD",
"'. c #B9D8D4",
"]. c #AEDBE1",
"[. c #B2DDE5",
"{. c #B4E0E7",
"}. c #B5E1E8",
"|. c #BDE7EF",
" X c #D2D8DC",
".X c #D8DCE0",
"XX c #DDE1E4",
"oX c #DFE7E9",
"OX c #DDE8E9",
"+X c #E5EAEC",
"@X c #FEFFFF",
"#X c black",
"$X c black",
"%X c black",
"&X c black",
"*X c black",
"=X c black",
"-X c black",
";X c black",
":X c black",
">X c black",
",X c black",
"<X c black",
"1X c black",
"2X c black",
"3X c black",
"4X c black",
"5X c black",
"6X c black",
"7X c black",
"8X c black",
"9X c black",
"0X c black",
"qX c black",
"wX c black",
"eX c black",
"rX c black",
"tX c black",
"yX c black",
"uX c black",
"iX c black",
"pX c black",
"aX c black",
"sX c black",
"dX c black",
"fX c black",
"gX c black",
"hX c black",
"jX c black",
"kX c black",
"lX c black",
"zX c black",
"xX c black",
"cX c black",
"vX c black",
"bX c black",
"nX c black",
"mX c black",
"MX c black",
"NX c black",
"BX c black",
"VX c black",
"CX c black",
"ZX c black",
"AX c black",
"SX c black",
"DX c black",
"FX c black",
"GX c black",
"HX c black",
"JX c black",
"KX c black",
"LX c black",
"PX c black",
"IX c black",
"UX c black",
/* pixels */
"              v v c ; ; ; ; ; ; ; ; ; O X X f V V $.$.$.$.$.$.$.$.$.$.$.2.F V h ; ; ; ; : +.$.$.$.$.$.$.$.$.$.$.$.$.$.@.: ;     ",
"              v v c o ; o o ; o - ; o o X X 5 V Z $.$.$.$.$.$.1.$.$.$.$.$.F V h ; ; ; ; 7 +.$.$.$.$.$.1.$.$.$.$.$.1.$.$.; -     ",
"; ; ; ; ; ;   f n n 5 5 4 4 4 4 5 < ; O X X > 4 e $.$.$.$.$.$.$.$.$.$.$.$.] ' D ; ; : 5 5 $.$.$.$.$.$.$.1.$.$.$.$.$.$.+.* @ +   ",
"; o ; ; ; ; ; 5 V V V V V V V V V 2 o o X X + - 7 $.$.$.$.$.$.$.$.$.$.1.$.$.$.@.; - 5 V C +.$.1.$.$.$.$.$.$.$.$.$.$.$.+.& X * ; ",
"; ; ; ; ; ; ; 5 V V V V V V V V V 2 ; o # X + ; 7 +.$.$.$.$.$.$.$.1.$.$.$.$.$.[ : ; 4 6 C $.$.$.$.$.1.$.$.$.$.$.$.$.$.#.& X @ o ",
"B V V 6 V V h V V V V V V V V V V 4 ; ; o o ; o 7 $.$.$.$.$.$.$.$.$.$.$.$.1.$.+.V V 4 ; : +.$.$.$.1.$.$.$.$.$.$.$.$.$.@.# X X X ",
"V V V V V V V V V h V V V V V V V 2 o ; ; ; ; ; 7 $.$.$.$.$.$.$.$.$.$.$.$.$.$.[ V V 2 o 7 +.$.$.$.$.$.$.$.$.$.$.$.$.$.+.& X X X ",
"V V V V V V V V V V V V V V V V V 2 o ; o ; + @ < F ' | 2.2.2.3.3.2.2.2.3.3.3.$.r 4 4 5 r +.$.$.$.$.$.$.$.$.$.1.$.$.$.@.& X X X ",
"V V B V V V V V V V V V V V h V V 4 - ; ; ; @ X # V V 4.x.L.L.L.L.L.L.L.L.L.P.x.^ 8 4 V V 1.+.1.$.$.$.$.$.$.$.$.$.$.$.#.& X X X ",
"V V V V V V V V V V V V V V V V V 2 - ; ; - @ X # V V j.).|.}.}.}.}.}.}.{.}.}.].u.0 4 B C $.1.1.$.$.$.$.$.$.$.| $.+.+.] # X X X ",
"V V V V V V V h V V V V V V V V V 2 o ; ; ; @ X # V V z.[.|.|.|.|.|.|.|.|.|.|.|.l.0 ; ; 7 +.$.$.$.$.$.$.$.$.| C V 4 : ; X X d v ",
"V h V V V V V V V V V V V V V V V 2 ; ; ; - @ X # V V j.].|.|.|.|.|.|.|.|.|.|.}.l.2 ; ; 7 +.1.1.1.1.1.1.1.1.$.V V 5 - ; X X a v ",
"V V V V V V V V V V V V V V 6 4 4 $ $ * ; ; O @ $ 4 2 6.].|.|.|.OX}.|.|.|.|.|.}.d.$ @ @ $ y y M m m m m m m m > g $ + @ X X = j ",
"V V V V V V V V V V V V V V 6 - o @ X X o ; ; - - - ; ,.`.|.|.|.|.|.|.|.|.|.|.{.w.i X X X o o @ X X X X X X X X X X X X X X * - ",
"V V V V V V V V V V V V h V 6 O o $ & & 0 I X.X.X.X.X.u.L.Y.I.F.R.W.R.T.E.E.E.U.w.Q W E Q O.I = X X X X X X X X # X X # X X @ ; ",
"h V V V V V V V V V V V 2 ; ; X X I $.$.$.x.).`.).).).I.z.6.} K / I ^ ^ ^ ^ ^ O.w.K./.T./.T.v.c X X X X X X # o o ; ; o X X X X ",
"V V V V V V V V V V V V 4 - O # X M 1.$.3.I.|.|.|.OX|.R.r.$.B B 2 ; ; ; ; ; - 9 s.}.|.|.|.|.H.v X X X X X X X - - - - O X X X X ",
"> > > , , 4 4 , > > > > $ @ @ X X S 1.$.t.R.|.|.|.|.|.R.r.$.' ] u o ; @ @ * @ = w.}.|.|.|.|.J.R g , , , 3 3 3 5 5 5 4 5 , , % X ",
"X X X X . - o @ X X X X X X X X X U $.$.3.I.}.|.|.|.|.R.r.$.$.1.y o o X X X X = w.[.|.|.|.|.H.) V V V V V V V V V V V V V V > X ",
"X # # # $ ; 2 $ & & & & & # # X X U $.$.3.I.|.|.|.|.|.R.r.$.$.1.y o ; X X X # i d.}.}.OX|.|.U.J V V V V V V V V V V V V V V > X ",
"h h ' $.| | | $.$.| $.#.D h N 0 t #.6.3.i.I.].{.{.{.].R.j.6.6.8._ w 9 X X X X p l.(.[.`.].].F. .A J G G A A V V V V V V V V , X ",
"V V ' $.| 1.$.$.$.$.$.$.F V G 0.V.P.R.I.I.L.x.x.x.x.C.U.^.'.'.^.!.n.R X X X X & } f.a.a.a.h.h.D.B.F.B.F.n. .V V V V V V V V , X ",
"' H | $.$.$.$.$.1.$.$.$.] H 6.Y.|.|.|.|.].k.{ ( F y ! n.OX@X@X@X@X X*.@ + > 3 f V Z V Z V V 5.E.|.}.|.|.(.7.V V V V V V V V > X ",
"1.$.$.1.$.$.$.$.$.$.$.$.1.1.y.W.|.|.|.|.{.h.V V 6 - - q.+X@X@X@X@XXX;.; - 5 V V V V V V V V 5.(.|.|.|.|.].9.V V V V V V V V > X ",
"$.$.$.$.$.$.$.$.1.$.$.$.$.1.y.T.|.|.|.|.].f.h 6 6 ; ; e.+X@X@X@X@X.X=.o o 4 V V V V V V V V 5.^.|.|.|.|.`.9.V V V V V V V V , . ",
"$.$.$.$.$.$.$.$.$.$.$.$.$.$.y.E.|.|.|.|.].0.0 ; ; ; : b.+X@X@X@X@XXX;.X X f V V V V V V V V 4.(.|.|.|.|.`.9.Z V V V V h V V 4 o ",
"$.$.$.$.$.$.$.$.$.$.$.$.$.$.y.E.|.|.|.|.].0.9 ; ; O ; <.+X@X@X@X@X X=.X X 3 V V V V V V V V &.(.|.OX|.|.`.7.V V V V V V V V 4 - ",
"$.$.$.$.$.1.$.$.$.1.$.$.$.$.g.Q.|.|.|.|.].f.0 o ; 4 4 &.S.~.~.~.~.M.T X X 3 V V V V V V V V 4.(.|.}.|.|.`.7.V V V V V V V V 4 o ",
"1.$.$.$.$.$.$.$.$.$.$.$.$.$.g.).|.|.|.|.].g.e o < V V A K } K K ` m 2 X X , V V V V V V V V 5.(.|.|.|.|.`.7.V V V V V V V V 4 ; ",
"$.$.$.1.$.$.$.$.$.$.$.$.$.$.g.).OX|.|.|.].j.u o : V V V V V V V 4 ; ; X X > V 6 V V V V V B 5.(.|.|.|.|.`.7.V V V V V V V V 5 ; ",
"$.$.$.$.$.$.1.$.$.$.1.$.1.$.g.).|.|.|.|.[.x.L o ; V V V V V V V V V 6 X X $ ; : V V V V V V 7.(.|.|.|.|.^.9.V V V V V V V V V V ",
"$.$.$.$.$.$.$.$.$.$.$.$.$.$.g.).|.|.|.|.{.C.L o ; V V V V V V V V V h X X + ; ; V V V V V V 6.Q.|.|.|.|.`.7.V V V V V V V V V V ",
"$.$.$.$.$.$.$.$.$.$.$.1.$.1.g.).|.|.|.|.{.x.y o ; V V V V V V V V V h X X $ - : V V V V V V 4.(.|.OX}.|.`.>.> 2 2 3 > > 2 2 3 > ",
"$.$.$.1.$.1.$.$.$.$.$.$.$.$.y.R.`.].`.].Q.G.#.Y ~ } } G Z V V V V V V X X + - : F } } } } } 8.U.(.(.Q.Q.H.E X o - @ X X o ; @ X ",
"$.$.$.$.$.$.$.$.$.$.$.$.$.$.3.g.z.z.j.j.z.P.J.G.G.E.U.a.A V V V V V h X X + O 2 >.P.T.J.U.U.B.f.:.>.o.o.E k X O o * X . O o @ X ",
"$.$.$.$.$.$.$.1.$.$.$.$.$.$.$.$.$.D V V F B.|.|.|.|.|.F.K V V V V h h X X X X i s.[.|.|.|.|.G.I - o . @ X X X X X @ ; ; . X X X ",
"1.1.1.1.1.1.1.1.1.1.1.$.$.$.1.1.1.F B V A B.|.|.|.|.|.U.) V V V V V h X X X X i l.}.|.|.|.|.J.I : o X X X X X X X $ - O X X X X ",
"y t D F D t t y y y F F B t y t y 0 > > n m.[.|.|.|.|.Z.{ V V V V V h X X X @ i s.[.|.|.|.|.H.Y @ @ X X @ O + + + < 5 4 + + + * ",
"o o 5 V 6 - O o O : V V 2 O o o o @ X X d m.|.|.|.|.|.Z.F V V V V V h X X X X i w.}.|.|.OX|.H.P X X X X + o ; - - 4 V B ; - ; ; ",
": : 5 6 5 O O O O ; h 6 2 O O o o @ X . k v.].|.[.[.[.Z...h C S Z Z C i = = # k w.].}.[.}.].A.P & & & & < 7 0 7 : 5 C C : 7 ; ; ",
"6 V 2 - O X X # X X # X X X X X X + - : V 4.d.n.w.w.w.d.u.s.q.s.u.u.s.s.u.s.u.q.w.w.w.w.d.w.*.n V V +.$.+.$.+.$.| 1.$.[ V V 4 - ",
"V V 2 o O X X . X X X X X X X X X + - ; V Z g i i & d ,.W.}.[.[.[.[.[.[.{.{.}.].w.k & i i i i g V C $.$.$.1.$.$.$.1.1.| V V 4 - ",
"f f % # @ X X . X & M U M U M ~ N ! ( ( ' ' ~ U U U U 0.].|.|.|.|.|.|.|.|.|.|.}.V.^ I I M * + : 2 e +.$.$.$.$.$.$.| 1.$.' ' r ; ",
"a a # X X X X X X p $.$.1.1.1.1.1.1.1.1.1.$.1.1.1.1.2.q._.|.|.|.|.|.|.|.|.|.|.}.P.3.2.2.[ : o - o : $.$.$.1.1.$.$.1.$.$.2.1.L o ",
"b a i i X X i X X % $.$.$.$.$.$.$.1.$.$.$.1.$.$.1.$.1.q.`.|.|.|.|.|.|.|.|.|.|.}.P.3.$.$.+.: : ; - 8 +.$.$.$.$.$.$.$.$.$.$.1.! o ",
"v v b v x a a # X = $.$.$.$.$.$.$.$.$.$.$.$.$.$.$.$.1.q.^.|.|.|.|.|.|.|.|.|.|.}.P.3.$.$.+.V V 4 - 7 +.$.$.$.$.$.$.1.$.$.$.1.y o ",
"v v v v v a a # X = 1.1.1.$.1.$.$.$.1.1.1.$.1.$.1.1.2.,.m.T.Q.Q.).Q.Q.Q.).Q.).W.c.2.$.$.+.V V 4 o 8 +.$.$.$.$.$.$.$.$.$.$.1.B o ",
"v v v v b a a # X @ t t S D H $.$.' F D D F B t t t t l c W 4. .t.i.i.i.i.i.g.y.3.1.1.$.$.V V 4 o 7 $.$.1.$.$.$.$.$.$.$.$.1.L o ",
"v v v v x a a # X X ; - 5 V V 1.1.F V V V V 2 O O - - @ X # V h ' $.$.$.$.$.$.$.$.$.$.$.$.V V 4 o 7 +.$.$.1.$.$.$.$.$.$.$.1.! o ",
"v v v v x p g i X X + + 4 h h ] [ Z 6 6 6 6 2 - - O O @ # # V V ' $.2.$.1.$.$.$.1.$.$.$.$.6 6 4 : : +.$.$.$.$.$.$.$.$.$.$.1.B ; ",
"v v v v c O ; @ X X X X # X # ; ; ; ; ; - ; - ; O X X $ ; ; V h ' $.$.$.$.$.$.$.$.$.$.$.[ ; ; 4 V C $.$.$.$.$.$.$.1.$.$.$.$.H V ",
"v v v v c ; ; @ X X X X X X X - - - - - - - - ; O . X + ; ; V V ' $.$.$.$.$.$.$.$.$.$.$.@.; ; 4 V V $.$.$.$.$.$.$.$.$.$.$.$.F V ",
"v v v v b ; ; , h 3 3 3 3 3 3 5 5 5 5 5 5 5 5 5 5 , 3 2 - ; % % ~ 1.$.$.$.$.$.1.$.$.$.$.[ 5 5 6 V C $.$.$.$.$.$.$.$.$.$.$.$.[ ' ",
"v v v v b ; - 5 V V V V V V V V V V V V V V V V V V V 4 - + X X U 1.1.$.$.$.$.$.$.$.1.$.$.V V V V V $.$.$.$.$.$.$.$.$.$.$.$.$.1.",
"v v v v x ; ; 5 V V V V V V V V V V V V V V V V V V V 4 2 ; X X y @.] +.$.$.$.$.$.$.$.$.$.V V h 6 C +.$.$.$.$.$.$.$.$.$.$.$.$.$.",
"v v x v c ; - 5 V V V V V V V V V V V V V V V V V V V V V 6 X X * 7 7 +.$.$.1.$.$.$.$.$.| V V 5 ; 7 +.$.$.$.$.$.$.$.$.2.$.$.$.$.",
"v v v v c ; ; 5 V V V V V V V V V V V V V V h V V V V V V h X X @ - 7 +.$.$.$.$.$.$.$.$.$.V V 4 o : +.1.$.$.$.$.$.$.2.+.2.+.1.1.",
"x v v v c ; - 5 V V V V V V V V V h V V V V V V V V V V V h X X * - 7 $.$.$.$.$.$.$.$.$.$.V V 2 o 7 $.$.$.$.1.$.$.$.+.1.1.1.] D ",
"v v v v c ; - 5 V V V V V V V V V V V V V V V V V V V V V h # X + ; 7 +.$.$.$.$.$.$.$.$.$.V V 4 o 7 +.1.$.$.$.$.$.$.1.+.$.$.H B ",
"v v v v c ; - 5 V V V V V V V V V V V V V V V V V V V h V h X X * o < [ +.] ] ] / / ' / / h h < + ; +.$.$.$.1.[ +.[ ] ] ] ' V h ",
"          ; ; 5 V V V V V V V V V V V V V V V V V V V V V h X X X X # V V 4 - ; X X X # X X X X X & +.$.+.$.+.C V 4 ; ; X X # X ",
"          ; - 5 V V V V V V V V V V V V V V V V V V V V V h X X X X # h V 4 ; o X X X X X X X X X & +.2.2.$.1.V V 4 o o X X X X ",
"          k k g % % % % % % % % % % % % % % % % % % % % > % X X X X @ 2 2 q z k b b a # p p p p p i l l q j l 2 2 l z k s b s k ",
"          v v p X X X X X X X X X X X X X X X X X X X X X X X X X X X o - j v v v v b a a a a a a a X X X X X o ; j v v v v v v "
};
