/* XPM */
static char *result[] = {
/* columns rows colors chars-per-pixel */
"64 64 256 2 ",
"   c None",
".  c #2C3D46",
"X  c #2C3D46",
"o  c #383E48",
"O  c #463E48",
"+  c #5A3C47",
"@  c #423E5D",
"#  c #653A46",
"$  c #663B49",
"%  c #693D49",
"&  c #663847",
"*  c #663F52",
"=  c #2F4047",
"-  c #2E4149",
";  c #324249",
":  c #35454A",
">  c #3B4254",
",  c #374858",
"<  c #2D5159",
"1  c #365858",
"2  c #2D4C55",
"3  c #394D63",
"4  c #374F64",
"5  c #2C5C69",
"6  c #285D69",
"7  c #345365",
"8  c #3B5465",
"9  c #3B5A65",
"0  c #365B6A",
"q  c #29626B",
"w  c #2A646B",
"e  c #326C6B",
"r  c #396668",
"t  c #39756B",
"y  c #3D7B6B",
"u  c #37726A",
"i  c #396973",
"p  c #377577",
"a  c #2F6B72",
"s  c #3B645E",
"d  c #45435D",
"f  c #4A445C",
"g  c #584353",
"h  c #545A54",
"j  c gray30",
"k  c #6D424A",
"l  c #66454F",
"z  c #784548",
"x  c #654B56",
"c  c #6A535B",
"v  c #7C5554",
"b  c #72504C",
"n  c #494561",
"m  c #464B62",
"M  c #4B4C63",
"N  c #474565",
"B  c #425365",
"V  c #4A5D6B",
"C  c #485867",
"Z  c #555C6C",
"A  c #595A6C",
"S  c #4D4877",
"D  c #534877",
"F  c #565775",
"G  c #50496C",
"H  c #6B5573",
"J  c #466868",
"K  c #57656A",
"L  c #427569",
"P  c #427D6A",
"I  c #477566",
"U  c #4A6574",
"Y  c #446874",
"T  c #5B6C73",
"R  c #5A697B",
"E  c #566474",
"W  c #467B7B",
"Q  c #487579",
"!  c #5D7276",
"~  c #5F7478",
"^  c #67666C",
"/  c #666978",
"(  c #617579",
")  c #657B7D",
"_  c #67757B",
"`  c #776A68",
"'  c #60695C",
"]  c #884C47",
"[  c #8B5649",
"{  c #97574A",
"}  c #8C5A53",
"|  c #A55C48",
" . c #A95C47",
".. c #B65E45",
"X. c #936D55",
"o. c #A6624B",
"O. c #B66145",
"+. c #BB6345",
"@. c #B66248",
"#. c #B96548",
"$. c #B96B49",
"%. c #A77648",
"&. c #A96C55",
"*. c #BB7655",
"=. c #B17453",
"-. c #8D7266",
";. c #B37D66",
":. c #C17349",
">. c #C87D48",
",. c #C17955",
"<. c #3F8076",
"1. c #42826B",
"2. c #478A76",
"3. c #458678",
"4. c #778278",
"5. c #91865E",
"6. c #B4834F",
"7. c #948773",
"8. c #B99B66",
"9. c #AC926E",
"0. c #B4A673",
"q. c #CA8348",
"w. c #D99748",
"e. c #CC9155",
"r. c #D6A84A",
"t. c #CBA24D",
"y. c #E5AA48",
"u. c #E9B648",
"i. c #F3BE47",
"p. c #CA9468",
"a. c #D7BA6E",
"s. c #D9BE71",
"d. c #D6BA72",
"f. c #CDAC70",
"g. c #F6C448",
"h. c #FACB48",
"j. c #F7C549",
"k. c #FED147",
"l. c #DCC276",
"z. c #E0C16F",
"x. c #584888",
"c. c #5D5889",
"v. c #62449C",
"b. c #624A96",
"n. c #675496",
"m. c #774D8D",
"M. c #4E7E81",
"N. c #6F7D81",
"B. c #684AA5",
"V. c #6C56A7",
"C. c #7859BB",
"Z. c #7156AB",
"A. c #7D59C5",
"S. c #AF6D8C",
"D. c #9367A2",
"F. c #815CCB",
"G. c #835BC3",
"H. c #865FD6",
"J. c #8666C9",
"K. c #8961DA",
"L. c #8863D6",
"P. c #9570DD",
"I. c #986FCB",
"U. c #AA78D1",
"Y. c #956CE4",
"T. c #9971EB",
"R. c #A67EF4",
"E. c #A87FF7",
"W. c #A37EEC",
"Q. c #885FE0",
"!. c #3F8281",
"~. c #4A8986",
"^. c #4C948C",
"/. c #4F998D",
"(. c #4C9384",
"). c #51988E",
"_. c #529E94",
"`. c #4F928D",
"'. c #6D8584",
"]. c #748A8A",
"[. c #778987",
"{. c #75938D",
"}. c #79968F",
"|. c #7A9A92",
" X c #799792",
".X c #798C90",
"XX c #53A096",
"oX c #86948E",
"OX c #859B98",
"+X c #949694",
"@X c #AE9888",
"#X c #85A29A",
"$X c #95A28E",
"%X c #B3AD90",
"&X c #97AAA5",
"*X c #9AB4AD",
"=X c #94AEA7",
"-X c #A4B4AB",
";X c #A4BDB5",
":X c #ACBCB4",
">X c #AAB3AE",
",X c #8D9EA0",
"<X c #D8B58D",
"1X c #D0BD89",
"2X c #D0A984",
"3X c #C89A85",
"4X c #AAC2BA",
"5X c #ABC0B4",
"6X c #B8C6BB",
"7X c #D8C88C",
"8X c #E4D798",
"9X c #E2CE8A",
"0X c #D4CEAC",
"qX c #E6D8A7",
"wX c #EDECBD",
"eX c #ECE7B3",
"rX c #EFECBA",
"tX c #DAE0B7",
"yX c #AE85FD",
"uX c #A880F5",
"iX c #B087FF",
"pX c #B288FF",
"aX c #B3CAC0",
"sX c #C3CDC2",
"dX c #CDD9CB",
"fX c #C7D3C7",
"gX c #DEDFC3",
"hX c #DDE5D6",
"jX c #F1F2C2",
"kX c #F3F9C8",
"lX c #E5ECDC",
"zX c #E8EFDE",
"xX c #E6EBD4",
"cX c #EBF2E0",
"vX c black",
"bX c black",
"nX c black",
"mX c black",
"MX c black",
"NX c black",
"BX c black",
"VX c black",
"CX c black",
"ZX c black",
"AX c black",
"SX c black",
"DX c black",
"FX c black",
"GX c black",
"HX c black",
"JX c black",
"KX c black",
"LX c black",
"PX c black",
"IX c black",
"UX c black",
/* pixels */
"                                B d / ;X-X;.*.+XOX[.& k r.g.%.& c #X#X6.*.@X;X,Xf d 0 7 7 7 7 w a a a p 3.2.2.2.2._._._._.~.q q ",
"                      R R Y q q 3 d / ;X:X=...7.|.4.% k u.h.%.+ c |.}.&...@XaX=Xn N r q q q q ~.XX_._.XX_._./._._._._._._.^.q q ",
"                      R c.i q q , > h 9.9.e.w.;.` c & k u.h.%.& k ` ` e.w.p.@X-.> > r q q q 6 ~.XX_._._._._._._._._._._._.^.q q ",
"R i q q q q q q q q q P 1.P y y 1 o g O.:.i.k.%.& # # k u.h.%.# $ & & y.k.w...{ . - u 6 q y y ^._._._._._._._._._._._._._.~.7 7 ",
"R Y q q q 6 q q q q q y 1.1.1.1.1 = j |  .r.u.=.[ [ z ] u.h.%.z ] [ [ r.u.q. .[ = ; p 6 w 1.1./.XX_._._._._._._._._._._._.~.7 3 ",
"U i e e e e e e e e e 1.1.1.1.1.1 - O # % O.+.r.h.y.+.+.i.h.w.O.q.h.h.:.+.] & + ; - y e u t t (._._._._._._._._._._._._._.~.3 3 ",
"6 t 1.1.1.1.1.1.1.1.1.1.1.1.1.1.1 - j $ k ....w.h.u.$.$.u.h.w.@.>.g.g.$.#.] % g ; ; 3.1.y w q ~.XX_._._._._._._._._._._.XX~.3 3 ",
"q u 1.1.1.1.1.1.1.1.1.1.1.P C M K K T [.[.b z { $.q.i.u.h.h.i.u.y.$.$.] z ` ].4.T T M m r w w ~._._._._._._._._._._._._.XX~.3 3 ",
"q t 1.1.1.1.1.1.1.1.1.1.1.P m f K ( ) }.{.l & { +.q.h.h.h.g.h.h.u.$.#.k & `  X{.~ ~ G n 9 y y ^._._._._._._._._._._._._._.~.8 3 ",
"q y 1.1.1.1.1.1.1.1.1.1.1.P , > K ( '.=X&X} { [ ] { w.w.w.w.w.w.q.] ] { ] 7.*X#X~ ~ , > 5 1.1.(._._._._._._._._._.XXXX_.XX~.3 3 ",
"q t 1.1.1.1.1.1.1.1.1.1.1.y : = C ( ].4X:X=.+.] & z @.@.....@.#.| # # ..#.@X4X*X( ( , = < e e ^._._._._._._._._._.(.(.3.~.p 3 3 ",
"6 t 1.1.1.1.1.1.1.1.1.1.1.1.: = V ( ].;X:X;.&.} x v #.+.*.*.$.#.| c x &.&.@X4X=X( ( : = < q q ~._._._._._._._._._.1.P e 6 5 4 3 ",
"q u 1.1.1.1.1.1.1.1.1.1.1.1.; = V ( [.4X4X|. X X|.7.@.#.f.z.e.#.&.|.|.|.{.=X4X*X( ( , = < q 5 ~._._.`.`.`.).).).^.P P e 6 5 3 3 ",
"q u 1.1.1.1.1.1.1.1.1.1.1.y : = V ) ].5X;X|.|.|.|.oX#.$.a.z.6.#.&.|.|.|.|.=X4X=X( ( : o , 3 8 5 q q 8 8 8 8 4 8 8 3 3 4 4 4 3 3 ",
"q u 1.1.1.1.1.1.1.1.1.s 2 : d > .X*X=X|.#XfXdXdXdX0Xf.f.qXrX%X4.$XdXdXdXdX;X|.#X*X*XA d > - : 5 q 0 4 4 3 3 3 3 3 3 3 3 3 4 3 3 ",
"7 e e u 1.1.1.1.1.1.1.L = ; d d .XaX*X|.|.hXzXlXlXeXs.s.eXkX5X).=XlXzXlXzX5X{.#X;X;XA @ > . - 7 7 4 4 4 3 3 4 3 4 0 7 5 5 7 3 3 ",
"4 5 q w 1.1.1.1.1.1.1.u > > Z Z &XfX:X'.'.oXoXoX}.$X8X8XrXjX0X0.0.oXoX[.oX[.'..XfXaX_ Z M > > 3 4 3 3 3 3 3 3 3 3 6 q q q 6 3 3 ",
"4 7 5 w L L y L y y y J n n ( ! :XzX6X( ( . X X X ' jXjXjXjX8Xl.9.X X X X B ( oXlXxX[.( Z n N 8 7 7 8 8 9 9 9 9 9 w a w w r 9 8 ",
"3 3 3 3 3 3 1 3 7 q 6 3 d d ! ! :XzX6X/ K h j h j 4.eXeXeXtX7Xf.9.h h h h h R [.lXhX[.! V d 3 q 6 e 3.P 1.P 1.1.1.1.1.1.1.y 1.1.",
"3 3 3 3 3 3 3 3 7 q q , = : T ! >XzX:Xf m f.a.a.a.d.s.d.oX|. X X4.l.d.d.l.-.@ / hXhX[.( C . - q 6 a 1.1.1.1.1.1.1.1.1.1.1.1.1.1.",
"3 7 0 w L L 3.~.~.~.~.Q ; : T ( >XzX:Xd M f.a.a.a.a.s.d.oX|.|.|.$Xl.l.z.l.-.n / hXhX[.) C X , t y y 1.1.1.1.1.1.1.1.1.1.1.1.1.1.",
"3 5 6 a 1.1.)._._.Q C E '.].6XfXsXaX&Xn f =.,.-.4.$XgXgXdXdXfXdX6X4.4.6.,.v > R 6XaXsXsXaX0X-XM m P 1.1.1.1.1.1.1.1.1.1.1.1.1.1.",
"Y i p p 2.3.)._._.E d E |.|.hXzXfX4X,Xd f o.+.-.T .XlXlXlXlXlXzXsX! I o...] @ F ;XaXhXzXxXzXsXM n L 1.1.1.1.1.1.1.1.1.1.1.1.1.1.",
"XXXX_.XX_._._._._.U d Z |.|.,X+XOXOX.XT / } X.+X&X&X-X-X-X-X*X*X-X-X&X-.-.` R N.OXOX+X,X-X6X&Xn n L 1.1.1.1.1.1.1.1.1.1.1.1.1.1.",
"_._._._._._._._._.U @ A  X{.n @ Z ~ '.|.|.) ! :XcXsXT ! R ! ! T .XlXxX].T '.|.{.! ! m @ T |.'.m f L 1.1.1.1.1.1.1.1.1.1.1.1.1.P ",
"_._._._._._._._._.Q M E ].'.M n A ^ ( {.].[.'.>XdX:X) ) N.'.N.~ .XfXfXoX].].{.].T ^ M d T ].) M B P 1.1.1.1.1.1.1.1.1.1.1.1.1.1.",
"_._._._._._._._._._.XX~.n n n N g % x ~ _ dXxX&X! N. X|.;X;X=X X].( ) fXxX&X! T k % f n n n M P 1.1.1.1.1.1.1.1.1.1.1.1.1.1.1.1.",
"_._._._._._._._._._._.M.n n n G g % x ~ _ fXlX&X! )  X|.*XaX#X X{.( ( dXlX&X! ^ % % f f n n B 1.1.1.1.1.1.1.1.1.1.1.1.1.1.1.1.1.",
"_._._._._._._._._.^ x b o.o.t.r.$. .} M A / / A m R ;X*X;X;X*X*X,XM M / / A M c  . .e.r.6.{ } x l I 1.1.1.1.1.1.1.1.1.1.1.1.1.1.",
"_._._._._._._._._.K & z O.+.i.h.w.$.{ f d @ d n @ R 4X:X4X4XaXaX&XN @ d @ n N x ..+.i.k.w... .$ # I 1.1.1.1.1.1.1.1.1.1.1.1.1.1.",
"_._._._._._._.! ! X.X.9.f.f.w.w.$.] z > d g g l v v .X.X,XOXoX.XN.} v g * @ , f { { w.w.p.f.f.X.X.' h I 1.1.1.1.1.1.1.1.1.1.1.1.",
"_._._._._._.).l & 9.l.9XkXjX*...] # g = . # # { :.{ n N E ( G > g ..+.z & O . o & &  ...<XkXeXz.l.v k h 1.1.1.1.1.1.1.1.1.1.1.1.",
"_._._._._._.).l & 9.<X9XjXeXp.e.[ $ + - = + l [ :.&.A ^ ) [._ ^ ` *.$.b + O ; o $ % =.,.<XjXeXl.7Xv % h t e r r r e e r r r e e ",
"_._._._._._.).l & 1XrXjXjXjXwXrX-.# + . = = X 5.a.7XwXwXwXwXwXwXqXa.f.j . ; ; o # k 0XrXwXjXwXwXrX} l h w q 0 3 3 5 q 7 3 7 5 q ",
"_._._._._._.).l & %XjXjXjXjXrXkX@X& + o = = = 5.z.9XjXjXjXjXjXjXeXa.a.j . . o o k k 0XkXjXwXjXwXjX} # h q 5 7 3 3 5 5 7 7 7 5 5 ",
"_._._._._._._.: o 9.9X7XjXjXrXkX1X8.5.; = ; = } ,.p.wXjXjXwXjXrXqX,.*.j - o . h 8.8.eXwXjXjXeX9X7Xh O < 7 4 4 3 3 3 3 5 q 5 8 3 ",
"_._._._._._./.: X 5.z.9XrXkXrXrX9Xz.0.. X . X [ ..p.jXjXrXrXkXkXqX#.#.: X = . h l.l.eXjXjXkXeXz.s.h X < 7 4 4 3 3 3 3 5 q 5 3 3 ",
"p W 2.3.p a <.s 1 ` 5.9.<X<X8XeXf.p.=.O + D x.-.w.e.<X<X<X<X<X<Xf.q.w.H x.m O x e.p.9XqX7X<X2X5.5.B : 4 4 3 7 5 5 5 5 u y u 5 5 ",
"q t 1.y 6 6 y 1.y 2 - j +.+.f.l.q.@.{ k % H.H.3Xh.y.............>.j.g.I.L.m.# z +.+.f.l.e...{ = X , 3 3 3 3 4 6 6 6 6 u 1.y 5 q ",
"5 e y t e e u y u 2 : j o.o.8.f.;.o.{ $ * F.H.3Xi.y.:.:.:.:.:.:.>.u.u.I.L.m.# z o.o.8.f.6. .[ ; = 1 9 9 i Y i p p p p <.2.3.e a ",
", 5 q w 1.1.e 6 5 3 3 , : o : : = ; > f n F.K.S.:.>.i.i.j.j.g.g.r.k k G.Q.n.f d : ; : : : ; : 4 3 0 1.1._._._.XX_._.XX_.XX^.1.1.",
"3 7 q w 1.1.e 5 5 3 3 , ; . o . = = > f n F.A.S...,.j.j.j.j.g.k.r.& % G.Q.b.d d = = ; ; o . > 3 3 0 1.1./._._._._._._._._./.1.1.",
"V V V r J J 8 7 4 3 3 3 3 r W W W W Y f N F.H.P.U.3Xq.>.q.>.@.[ -.I.I.L.K.n.d G W W W W W W 3.e 6 w w a ^._._._._._._._._._././.",
"V V V V V V 3 3 4 3 3 3 3 Q _._._.XX~.f G F.H.T.pXU.+.+...:.] + H iXiXY.K.n.d C _._._._._._._.p 6 q q q ^._._._._._._._._._._.XX",
"V V V U F E V V V 8 8 3 3 Q _._._._.~.f N F.H.Y.T.U.S.S.S.S.D.D.D.E.E.Y.K.m.d C _._._._._._._.<.e e q q ^._._._._._._._._._._._.",
"        R R ! c.E V V 3 3 Q _._._._.~.n n F.K.H.H.Y.pXiXpXE.W.iXE.E.E.Y.Q.b.n C _._._._._._._.2.1.y q w ^._._._._._._._._._._._.",
"        R R R R E V V 3 3 Q _.).).).~.M G C.F.H.H.Y.E.yXiXE.yXyXE.E.E.K.H.n.B V _._._._._._._.2.1.t q q ^._._._._._._._._._._._.",
"        R R R R E V V 3 3 0 w e 3.1.(._.(.G N Z.K.K.K.K.K.K.K.K.Y.K.K.D n R _._._._._._._._._.2.1.y q w ^._._._._._._._._._._._.",
"        R R R R E V V 8 3 7 q w P 1.(.XX/.M d V.H.H.H.H.K.K.H.K.H.H.H.D d Q _._._._._._._._.XX2.1.y 6 q ^.XX_._._._._._._._._._.",
"        R R R R U 0 0 4 3 4 7 7 J r p p p : ; x.Z.C.Q.H.H.K.K.H.H.Z.B., : Q _._._._._._._._.XX<.e u t t ^._._._._._._._._._._._.",
"        R R R R U q q 4 3 3 7 3 , 3 5 6 q : - S B.B.H.Q.Q.H.H.H.A.B.v.> . Y _._._._._._._._.XXa 6 e 1.1./.XX_._._._._._._._._._.",
"        R R R R U w q 0 8 8 9 9 8 8 w r w < 2 S x.b.A.A.H.H.H.Q.A.x.x.C r 3._._._._._._._._.XXp w e 1.1./._._._._._._._._._._._.",
"  R R R R R R R U q q y 1.1.1.1.P 1.1.1.1.1.P J @ G v.B.A.Q.H.H.C.@ d M._._._._._._._._._._._.2.1.1.1.1./.XX_._._._._._._._._._.",
"  R R R R R R R U q w 1.1.1.1.1.1.1.1.1.1.1.1.s @ G v.v.A.H.H.H.C.@ n M.XX_._._._._._._._._._.2.1.1.1.1./._._._._._._._._._._._.",
"  R R R R R R R U q w y 1.1.1.1.1.1.1.1.1.1.1.1 o N v.v.B.B.v.v.x.. - r a ~.XX_._._._._._._.XX3.1.y a e /._._._._._._._._._._._.",
"  R R R R R R R Y q q y 1.1.1.1.1.1.1.1.1.1.1.1 X o v.v.v.v.v.v.x.. . 5 q p _._._._._._._._.XX2.1.y 6 q ^._._._._._._._._._._._.",
"    R R R R R R U q w y 1.1.1.1.1.1.I C C C C c.V.C.P.P.P.P.P.P.L.Z.V.B m 8 U U _._._._._._.XX2.1.y q q ^._._._._._.XX/.XX_._._.",
"        R R R R Y q w y 1.1.1.1.1.1.I d d d f n.H.Y.iXiXiXiXiXiXE.H.K.G d n n V _._._._._._.XX3.1.p q q ^._._._._._.XXXXXX_._._.",
"        R R R R U q q 1.1.1.I J J J J D S n.n.J.Y.T.iXyXyXiXyXyXE.Y.Y.V.n.x.D D M.M.M.M.~._._.3.1.u 6 q ^._._._._._././._._._./.",
"                  q q y 1.P m n n @ G v.v.uXpXpXiXiXyXyXyXyXiXyXyXiXyXiXpXJ.v.x.n f n n B 0 V 8 9 7 7 7 ^._._._._.3.3.p a i 0 0 ",
"                  6 q 1.1.P f m C M F B.B.uXyXyXyXyXuXyXE.E.E.yXyXyXyXyXpXJ.B.b.G G n n n 3 4 3 3 3 3 3 ^._._._._.1.1.e 6 5 3 3 ",
"                  i Y r u J m d C.uXuXR.uXyXiXyXyXR.K.K.B.B.A.K.Y.yXiXiXpXyXR.R.R.W.D n m 8 B B B 8 B B Q M.M.M.W t t i i Y V B ",
"                  R R 3 3 3 d d J.pXiXiXyXiXiXiXiXuXH.H.B.v.A.K.Y.yXiXiXyXiXiXiXiXyXF d V V V V V V V V 3 3 3 3 4 5 q Y R R c.T ",
"                  R R 3 3 3 m 3 F c.V.Y.Y.Y.Y.L.C.Z.x.D N 3 S D x.C.C.Y.Y.Y.T.J.c.c.F F E V V V V V V J 3 3 3 3 7 q q U R R R R "
};
