/* XPM */
static char *result[] = {
/* columns rows colors chars-per-pixel */
"64 64 77 1 ",
"  c #374F64",
". c #394D63",
"X c #2F5767",
"o c #275F6A",
"O c #2C5C69",
"+ c #345365",
"@ c #3B5364",
"# c #325967",
"$ c #3B5A65",
"% c #325B69",
"& c #3D5C6C",
"* c #27606B",
"= c #29626B",
"- c #2F696B",
"; c #3D6466",
": c #3E6A67",
"> c #33636A",
", c #3B656A",
"< c #326D6B",
"1 c #3D6C69",
"2 c #36726B",
"3 c #39756B",
"4 c #3D7B6B",
"5 c #2F6B72",
"6 c #336770",
"7 c #3E6572",
"8 c #336E74",
"9 c #3A6E75",
"0 c #347276",
"q c #397575",
"w c #3C7C77",
"e c #367478",
"r c #3A767A",
"t c #3B7B7C",
"y c #405466",
"u c #465B6C",
"i c #4A5D6B",
"p c #49636B",
"a c #407669",
"s c #417C6B",
"d c #497C6F",
"f c #406572",
"g c #4B6676",
"h c #426C75",
"j c #536474",
"k c #576778",
"l c #56687A",
"z c #5A697B",
"x c #45757B",
"c c #477B7F",
"v c #3F8076",
"b c #3E807E",
"n c #42826B",
"m c #438573",
"M c #468A76",
"N c #40827C",
"B c #48837F",
"V c #478A78",
"C c #498E7C",
"Z c #487E81",
"A c #3F8281",
"S c #428583",
"D c #4A8584",
"F c #458A87",
"G c #4A8A86",
"H c #468D88",
"J c #4C8B88",
"K c #4C9485",
"L c #4D948C",
"P c #4F998C",
"I c #50968F",
"U c #509A8E",
"Y c #4E9790",
"T c #4F9991",
"R c #529E94",
"E c #53A095",
"W c None",
/* pixels */
"WWWWWWWWWWWWWWWWglglglg%O<nmTRRRRRRRRRRR0<#++ +68808mMMMMRRRRH==",
"WWWWWWWWWWWzzf=====oo== .;nnRRRRRRRRRRRRnn2o==oFRRTRRRRRRRRRRL=*",
"WWWWWWWWWWWzzf=========+.;nMRRRRRRRRRRRTnn<===oFERERRRRRRRRREH=o",
"z7=====*===dds3444442== .$<<TRRRRRRRRRRRPUto=44KRRRRRRRRRRRRRJ++",
"z7**=***=*=4nnnnnnnn4=o .+o5YRRRRRRRRRRRREbo=nnKERRRRRRRRRRREJ..",
"g7-<<<2-<<<nnnnnnnnn3==X+Xo5YRRRRRRRRRRRREA-<43LRRRRRRRRRRRRRJ..",
"*3nnnnnnnnnnnnnnnnnn4===*==-TRRRRRRRRRRRRRCn4==FERRRRRRRRRRREJ..",
"=3nnnnnnnnnnnnnnnnnn3=====o-YRRRRRRRRRRRRRCn4-=HRRRRRRRRRRRREJ..",
"*3nnnnnnnnnnnvnnnnnn4==o=X +mnPRRRRRRRRRREb=-44KRRRRRRRRRRRREJ..",
"*3nnnnnnnnnnnnnnnnnn3====#.@ssKRRRRRRRRRREt=-nnPRRRRRRRRRERREJ..",
"*3nnnnnnnnnnnnnnnnnn4o=o=#.@nnKRRRRRRRRRREt==22LRRRRRRRRRKCSSr..",
"*3nsnnnnnnnnnnnnnnnn4====X.@snKRRRRRRRRRRRbo=ooJERRRRRRRRnn<oO..",
"*3nnnnnnnnnnnnnnnnnn3====X +s4KYYYYTRTRPRRtOO=oSRYYIYYIIPss<o%..",
"o3nnnnnnnnnnnnnnnn<=%..O==o====--=-4nnnmnn:... >-O@@@@.@@@.@....",
"*3nnnnnnnnnnnnsnnn<=O..O===o==o=oo=4nnnnnn;....O=%..............",
"+><3nnnnnnnnnnn4<<%+,ccSSSSSSSSSS23<2<<2<2%....+X+.......#XXX#..",
".#*-nnnnnnnnnnns==+.fEEEEEEEEEERUnn-O*oooo#..............o***o..",
".#o>aaaa444ssas3OO+.fURRRRRRRRRRUmm-==OoOo+..+ @ +&@$$@$$>--->$@",
"........+==+........fRRRRRRRRRRRERR8=X.......=*==-dnnsnnnnnnnnnn",
"........+=O ........fRRRRRRRRRRRRRR0=X...... =**o-nnnnnnnnnnnnns",
".#O%aaBGJHHJDJJDsa>X9RRRRRRRRRRRRRR0*X@...p3443434nnnnnnnnnnnnnn",
".X*-nnPEREEEEERUnn-o0RRREEEERERREEE8*%....:nnnnnnnnnnnnnnnnnnnnn",
"f9ewVMPRRRRRRRRRMV<*0RRPKKKKHFFFFDD>##++$$3nnnnsnnnnnnnnnnnnnnns",
"ERREERRRRRRRRRRREEeo0RRmnnn4==o*X....+*=nnnnnnnnnnnnnnnnnnnnnnnn",
"RRRRRRRRRRRRRRRRREeo0UEmnnv4====O ...+==snnnnnnnnnnnnnnnnnnnnnnn",
"RRRRRRRRRRRRRRRRRRM4vnn<----**# +Oo+.. @snnnnnnnnnnnnnnnsnnnnnnn",
"RRRRRRRRRRRRRRRRRRVnnns-ooo*o*+.+*=+...@snnnnnnnnnnnnnnnnnnnnnnn",
"RRRRRRRRRRRRRRRRREKVKCC32<**22,;,22##+..snnnnnnnnnnnnnnnnnnnsnnn",
"RRRRRRRRRRRRRRRRRREERRRmn3==nnnnnnn-=X.@snnnnnnnnnnnnnnnnnnnnnnn",
"RRRRRRRRRRRRRRRRRRRRRRRMn3o=nnnnnnn<=%.@ssnnnnnnnnnnnnnnnnnnnnnn",
"RRRRRRRRRRRRRRRRRRRRRRRRRSo-snnnnnnnv:..==3nnnnnnnnnnnnnnnnnnnnn",
"RRRRRRRRRRRRRRRRRRRRRRRRENo=nnnnnnnnn:..o=2nnnsnnnnnnnnnnnnnnnnn",
"RRRRRRRRRRRRRRRRRRRRRRRREN==4nnnnnnnn:. o=2nnnnnnnnn2<,;;<<;;;<<",
"RRRRRRRRRRRRRRRRRRRRRRRREN*=nnnnnnnnn:. ==2nnnnnnnnn-=X  =o#.+o=",
"RRRRRRRRRRRRRRRRRRRRRPUPUN*=nnnnnnnnna..XO<444s44444=X#..OO#++OO",
"RRRRRRRRRRRRRRRRRRREKnnnn3*=vnnnnnnnn:....%=========+......X=O..",
"RRRRRRRRRRRRRRRRRRRRUnnnn3==4nnnnnnnna....%=======o=..@....#=O..",
"0vVN00mMv0000wMMe0008$$$$$++<-4nnnnnn:.... ++@++++++..+OOOX<42OX",
"*2n4*o4n4**=*2n4===*X.......=*3nnnvnn:................#*=**3n4==",
"o,44<-34<XOXX,a1%OXO#++$$@.+XX<444434:+++++......@$;ff7eee0NMm<<",
".#*-nn<oX...........@==4na....X*o=o===*===O......;nnTERERERERPnn",
".#*-sn<o#....@@..@..+=-vn:....#oo=*-======#@.....$vnTRRRRRRRRPnn",
"uuuppp@.@....hLLLLJLLLLPUILLIIh.>KKKLLLLYYYJLIJ8Oo--YRRRRRRRRRPP",
"iiiiii.......xEERREERRRRRRRERRh.&EEEEETRRRRRREEeo=*=LRRRRRRRRRRR",
"iiipjjiuuyy..xERRRRRRRRRERRRREh.&RRRRRRRRRRRRRRw<<*=LTRRRRRRRRRR",
"WWWWkkzzkii. xERRRRRRRRREERRREf.&RRRRRRRRRRRRRRVn4==YRRRRRRRRRRR",
"WWWWzzzzjii..xTTURRRRRTUUUTTTRf.&RRRRRRRRRRRRRRVn3==LRRRRRRRRRRR",
"WWWWzzzzjiu..%5-nnKEPnmnmq==-=+.&nnPRRRRRRRRRRRVn4==YRRRRRRRRRRR",
"WWWWzzzzjii@.#o-nnCEPnnnn3*=o=#.@nsPRRRRRRRRRREVn4o=YRRRRRRRRRRR",
"WWWWzzzzg&% .@+#;$3bq2<<2-==#+#X>nnPRRRRRRRRRRRw<233PRRRRRRRRRRR",
"WWWWzzzzg** ......Xo*o*ooo=o .X*-nnPRRRRRRRRRRR0o<nnPERRRRRRRRRR",
"WWWWzzzzg*=$@$@@$$>=------->$$%=-asLRRRRRRRRRRRr=2nnTRRRRRRRRRRR",
"Wzzzzzzzg==snnnsnnsnsnnnsnnsnn<=O.@GRRRRRRRRRRRMnnnnPRRRRRRRRRRR",
"Wzzzzzzzh==4nnnnnnnnnnnnnnnnnn<*O..JRRRRRRRRRRRVsnnnURRRRRRRRRRR",
"Wzzzzzzzg==nnnnnnnnnnnnnnnnnnn443..60SERRRRRRRRVn4-<LRRRRRRRRRRR",
"Wzzzzzzzg==4nnnnnnnnnnnnnnnnnnnna..OotRRRRRRRRRMn4*=LERRRRRRRRRR",
"WWzzzzzzgo=nnnnnnnnnnnnnnnnnnnnna..O*rRRRRRRRRRVn3==PRRRRRRRRRRR",
"WWWWzzzzg**nnnnnnnnnnnnnnnnnnnnna..O*wRRRRRRRRRMn3==LERRRRRRRRRR",
"WWWWzzzzg*=4nnnnnnnnnnnnnnnnnnnna..OotRRRRRRTRIVn4==LRRRRRRRRRRT",
"WWWWWWWWW*=vnnnnnnnnnnnnnnnnnnsna..@ ;mm88>y&&&@@@.+LRRRTMmq5>&&",
"WWWWWWWWW==snnnnvnnnnsnnnnnnnnnns....;nn==X........@IRRERmn<oO..",
"WWWWWWWWWf,::::::p::aa3::::::f3a;....$3277fuuyyy@yyyxcccc33777uy",
"WWWWWWWWWzky.........................+*=kzzzkiiiiiii.... oogzzzz",
"WWWWWWWWWzk@.........................+o=kzzzkiiiiiii.... =ogzzzz"
};
