/* XPM */
static char *result[] = {
/* columns rows colors chars-per-pixel */
"64 64 256 2 ",
"   c None",
".  c #3F4D36",
"X  c #3C4B3A",
"o  c #38473B",
"O  c #404E36",
"+  c #435236",
"@  c #4A5B36",
"#  c #43533B",
"$  c #4B5D3B",
"%  c #485937",
"&  c #5E5A3C",
"*  c #4D6139",
"=  c #566B36",
"-  c #596F36",
";  c #56693B",
":  c #5B7136",
">  c #5E7438",
",  c #647B3B",
"<  c #63793C",
"1  c #68543B",
"2  c #2D3D46",
"3  c #2E3E48",
"4  c #223540",
"5  c #313F47",
"6  c #443B47",
"7  c #583B48",
"8  c #663946",
"9  c #653C49",
"0  c #6B3C49",
"q  c #643646",
"w  c #2F424A",
"e  c #2F4047",
"r  c #334345",
"t  c #3B4C43",
"y  c #314049",
"u  c #3B4A48",
"i  c #395649",
"p  c #2E4856",
"a  c #334552",
"s  c #334A53",
"d  c #3A4655",
"f  c #375758",
"g  c #2B545D",
"h  c #3C695C",
"j  c #374E64",
"k  c #394C63",
"l  c #3D4B6B",
"z  c #2B5D6A",
"x  c #295D67",
"c  c #335566",
"v  c #3C5365",
"b  c #325A67",
"n  c #3C5E65",
"m  c #3C5668",
"M  c #3C5A6A",
"N  c #335B69",
"B  c #2D567B",
"V  c #365279",
"C  c #344F6F",
"Z  c #2A626B",
"A  c #2B636B",
"S  c #3D6466",
"D  c #3D6A66",
"F  c #336D6B",
"G  c #3D6C69",
"H  c #35656B",
"J  c #36726B",
"K  c #39766B",
"L  c #3E7D6B",
"P  c #3C7365",
"I  c #2E6971",
"U  c #3B7C7D",
"Y  c #3A7777",
"T  c #3E6970",
"R  c #474749",
"E  c #445546",
"W  c #49445D",
"Q  c #434558",
"!  c #584654",
"~  c #5A5859",
"^  c #544F51",
"/  c #69434A",
"(  c #78474B",
")  c #654C53",
"_  c #70544E",
"`  c #426D57",
"'  c #50674C",
"]  c #687B42",
"[  c #6C6B55",
"{  c #484460",
"}  c #464967",
"|  c #445A69",
" . c #4A5D6C",
".. c #435868",
"X. c #484E70",
"o. c #4F5F73",
"O. c #466A67",
"+. c #417D6A",
"@. c #457665",
"#. c #4C6375",
"$. c #426874",
"%. c #556778",
"&. c #516878",
"*. c #5A697B",
"=. c #477579",
"-. c #587069",
";. c #677565",
":. c #76756B",
">. c #874C49",
",. c #9B5A49",
"<. c #85574D",
"1. c #A55C48",
"2. c #B65F45",
"3. c #926957",
"4. c #9C755B",
"5. c #8B6E54",
"6. c #B26248",
"7. c #BB6548",
"8. c #B86648",
"9. c #B36E50",
"0. c #94746E",
"q. c #C3744F",
"w. c #6B813E",
"e. c #3F827F",
"r. c #6E8540",
"t. c #748B43",
"y. c #718744",
"u. c #7B9347",
"i. c #7E9648",
"p. c #7F9849",
"a. c #42826B",
"s. c #498E7C",
"d. c #458678",
"f. c #4A907F",
"g. c #72857A",
"h. c #819949",
"j. c #8F845F",
"k. c #AA835F",
"l. c #A9975E",
"z. c #888777",
"x. c #A89864",
"c. c #A48B7D",
"v. c #AE916A",
"b. c #B5A46D",
"n. c #C78A59",
"m. c #CA955E",
"M. c #D2965E",
"N. c #C58262",
"B. c #D19D66",
"V. c #CAA867",
"C. c #D5B46D",
"Z. c #DBBC6D",
"A. c #D8B86D",
"S. c #DDBD70",
"D. c #D7BD77",
"F. c #D0A968",
"G. c #E2BF71",
"H. c #E0BD6F",
"J. c #DBC173",
"K. c #DCC379",
"L. c #E2C277",
"P. c #2A5A84",
"I. c #285C89",
"U. c #275C87",
"Y. c #345B90",
"T. c #387094",
"R. c #3768B6",
"E. c #485693",
"W. c #4A7D80",
"Q. c #4467B9",
"!. c #3C6DC7",
"~. c #3D70CE",
"^. c #4172DA",
"/. c #436ED3",
"(. c #4575E4",
"). c #4978E9",
"_. c #4877F1",
"`. c #4879F1",
"'. c #4B8B85",
"]. c #4C9384",
"[. c #4D938C",
"{. c #4F998D",
"}. c #50998F",
"|. c #4F9990",
" X c #4E9790",
".X c #509790",
"XX c #529E94",
"oX c #558986",
"OX c #53A095",
"+X c #4887F3",
"@X c #4597EA",
"#X c #48A2EF",
"$X c #48A1F7",
"%X c #48A8F8",
"&X c #48A6F8",
"*X c #4397DE",
"=X c #B2AA92",
"-X c #B7A48C",
";X c #9E9783",
":X c #C2B398",
">X c #DBB991",
",X c #DBC68D",
"<X c #E2CA85",
"1X c #E2D18E",
"2X c #E5D598",
"3X c #D8D0AB",
"4X c #E6D9A8",
"5X c #E3D5AA",
"6X c #EAE2AA",
"7X c #EFEDBC",
"8X c #EDE8B5",
"9X c #F0ECBC",
"0X c #F2F1BD",
"qX c #F1EFC4",
"wX c #F1F1C2",
"eX c #F6F5C9",
"rX c #EFEEC5",
"tX c black",
"yX c black",
"uX c black",
"iX c black",
"pX c black",
"aX c black",
"sX c black",
"dX c black",
"fX c black",
"gX c black",
"hX c black",
"jX c black",
"kX c black",
"lX c black",
"zX c black",
"xX c black",
"cX c black",
"vX c black",
"bX c black",
"nX c black",
"mX c black",
"MX c black",
"NX c black",
"BX c black",
"VX c black",
"CX c black",
"ZX c black",
"AX c black",
"SX c black",
"DX c black",
"FX c black",
"GX c black",
"HX c black",
"JX c black",
"KX c black",
"LX c black",
"PX c black",
"IX c black",
"UX c black",
/* pixels */
"              *.*.&.Z Z Z Z Z Z Z Z Z t X ] t.r.= = r.y.y.y.y.y.y.$ O # E ` a.L A Z Z Z Z |.OXXXXXXXXXXXXXXXXXXXXXXXXX|.A Z     ",
"              *.W.&.z z z Z Z x Z Z Z . o ] p.t.= - u.p.p.p.p.p.i.$ O + # . +.+.A A Z x I |.XXXXXXXXXXOXXXXXOXXXXXXXXX|.I Z     ",
"Z Z Z Z Z Z   @.*.=.P P J J F J D i i ' - , r.r.r.r.u.i.t.w.r.r.w.> ' - $ * ` ` A A F K K }.OXXXOXXXXXXXXXXXXXXXXXXXXX|.N c z   ",
"Z z Z Z Z Z z K +.a.a.a.a.a.a.a.` # % i.p.w.- , i.i.i.p.w.- - - : u.h.w.- - + + g Z J a.d.XXXXXXXXXXXXXXOXXXXXXXOXXXXX}.v k c Z ",
"Z Z Z Z Z A Z K a.a.a.a.a.a.a.a.` . # t.u.< = < t.u.u.u.r.: > > , w.w.w.= = . . f A P a.a.XXXXXXXXXXOXXXXXXXXXXXXXXXXX.Xm k c Z ",
"a.a.L L a.a.a.a.a.a.a.a.a.a.a.a.h y r : - @ O % : : : > r.i.u.i.h., , * O . y e X . i Z I XXXXXXXXXXXXXXXXXXOXXXXXXXXX.Xv k j j ",
"a.a.a.a.a.a.a.a.a.a.a.a.a.a.a.a.h y r : - % O % - - - - r.p.i.i.h., : * O O y e X O i z I XXXXXXXXXXXXXXXXXXXXXXXXXXXX.Xm k k k ",
"a.a.a.a.a.a.a.a.a.a.a.a.a.a.a.a.` X X t t @ = : t.t.> - > , w.i.h.w.u.' r r X o o r f J J XXXXOXXXOXXXXXXXOXXXXXXXXXXX.Xv k k k ",
"a.a.a.a.a.a.a.a.a.a.a.a.a.a.a.a.` O . y y * : , i.i.> - - - , h.h.h.h.] 3 r O O r y s a.a.XXXXXXXXXXXXXXXXXXXXXXXXOXXX Xm k k k ",
"a.a.a.a.a.a.a.a.a.a.a.a.a.a.a.a.` o o r o ' w.w.i.i.> - , , w.w.w.w., ' r r o X o r f a.a.XXXXXXOXXXXXXXXXXXXXXXXX|. X[.m k k k ",
"a.a.a.L a.a.a.a.a.a.a.a.a.a.a.a.h 3 y . O ] h.i.i.u.< - w.h.u.: - + O O O X e y o + i A I XXXXXXXXXXXXXXXXOXXXa.a.K A Z k k  .*.",
"a.a.a.a.a.a.a.a.a.a.a.a.a.a.a.a.h y r . . ] i.u.i.u.: - w.i.t.: > @ + O O . y y X . i Z A XXOXXXOXOXOXOXOXOXOXa.a.K Z Z k } X.W.",
"a.a.a.a.a.a.+.a.a.a.a.a.L a.L J g y y y y * < , i.u.@ + * > , u.u.< - @ O O y y e r s c N U U U =.=.=.=.=.=.$.S S b c c k k M $.",
"a.a.a.a.a.a.a.a.a.a.a.a.a.a.L Z g 3 5 3 3 $ : , i.u.% . * : , i.h.< - $ O X y y e 3 a k j z Z c k k k k k k j k k k j k k k c z ",
"a.a.a.a.a.a.a.a.a.a.a.a.a.+.L z f 7 7 <.<.& @ - p.u.X r # % % ' E E # # O O $ $ t 3 a k j z Z c k k k k k k k c k v j v k k c Z ",
"a.a.+.a.a.a.a.a.a.a.a.a.F Z Z j ! 0 ( 2.q.1 o * p.u.u r o . X e 5 5 3 o O O : : t 3 y v k k k k k k k k k k k z z Z Z z j k k j ",
"a.a.a.a.a.a.a.a.a.a.a.a.J Z z k W 0 ( q.q.5.] [ r.] u y t O . t t r e o % % - - X e a j k j k s k j j k k k k Z Z x Z z j k k k ",
"S S S S D F J D S S S S N c c k ! 0 ( C.L.G.G.l.. O y e o . + : : u 3 E : : : : t 3 p b c b c H S S S S G G D J K J K J D D M k ",
"d j k k c z Z c k k k k k j k k W 0 ( C.H.H.H.l.# # 5 5 o . + : : t 3 E : - : : t y s Z Z Z Z J a.a.a.a.a.a.a.a.a.a.a.a.a.a.S k ",
"m m m m m A I N m v ..v m v ! 9 >.6.9.Z.H.4.( 3.V.V.8.1._ 2 t : - t 5 o + # u y s v b Z Z Z A P a.a.a.a.a.a.a.a.a.a.a.a.a.a.S k ",
"a.+.].XX|.XX|.|.XXXX.XXXd.+.) 0 >.7.7.C.H.3.q 3.G.H.q.q._ 3 t : - t e r . . e 3 D a.a.a.L L a.a.a.a.a.a.a.a.a.a.a.a.a.a.a.a.G k ",
"a.+.].XXXXXXXXXXXXXXXXXXs.a.! 0 4.>X>X2X2X0.6 [ 2X2XM.M.[ e r @ @ r e r o t s s P a.a.a.a.a.a.a.a.a.a.a.a.a.a.a.a.a.a.a.a.a.D k ",
"].].XXXXXXXXXXXXXXXXXXXX].].) 0 c.eXeXeXeX;.4 :.eXqXL.L.[ r r . . r y y e r D G a.a.a.a.a.a.a.a.a.a.a.a.a.a.a.a.a.a.a.a.a.a.S k ",
"XX|.XXXXXXOXXXXXOXXXXXXXXXOX! 7 c.eXrXrXeX;X| z.8X8XL.J.4.R R # . r e w s s a.a.a.a.a.a.a.a.a.a.a.a.a.a.a.a.a.a.a.a.a.a.a.a.S k ",
"XXXXXXXXXXXXXXXXOXXXXXXXXXOXf 2 z.eXqXqXqXqXqX6XH.H.H.H.n.7.1.y e y e p Z P a.a.a.a.a.a.a.a.a.a.a.a.a.a.a.a.a.a.a.a.a.a.a.a.D j ",
"XXXXXXXXXXXXXXXXXXXXXXXXXXXXf 2 W.eXqXqXqXqXqX6XH.H.S.S.n.7.,.y y y r d k G a.a.a.a.a.a.a.a.a.a.a.a.a.a.a.a.a.a.a.a.a.a.a.a.J z ",
"XXXXXXOXXXOXXXXXXXXXXXOXXXXX'.P @.~ :.>X<X<X<XL.S.S.q.q.,.( <.b.b._ 7 W k G a.a.a.a.a.a.a.a.a.a.a.a.a.a.a.a.a.a.a.a.a.a.a.a.J x ",
"XXXXXXXXXXXXXXXXXXXXXXXXXXXXXX[.O.2 R C.G.G.G.G.H.S.q.q.>.q <.D.A._ q 7 k G a.a.a.a.a.a.a.a.a.a.a.a.a.a.a.a.a.a.a.a.a.a.a.a.J Z ",
"XXXXXXXXXXXXOXXXXXXXXXXXXXXXOXXX].S O.j.j.k.k.k.4.k.7.7.9.4.k.1X1X-Xc.:.W ~ a.a.a.a.a.a.a.a.a.a.a.a.L a.a.a.a.a.a.a.a.a.a.a.J Z ",
"XXOXXXXXXXXXXXXXOXXXXXOXXXXXXXXXXXXX}.w 2 7 0 q 0 0 6.2.B.D.<XqX0XwXeX-Xq / L L a.a.a.a.a.a.a.a.a.a.a.a.a.a.a.a.a.a.a.a.a.a.J Z ",
"XXXXXXOXOXXXXXXXXXXXXXXXXXXXXXXXXXXX.Xs s R 0 9 >.( 9.q.m.C.D.qX0XwXwX=X( _ H S @.a.a.a.a.a.a.a.a.a.a.a.a.a.a.a.a.a.a.a.a.a.a.a.",
"XXXXXXXXXXXXXXXXXXXXXXXXOXXXXXXXXXXXXXXX|.S 3 [ D.C.S.D.n.6.N.qX7XwXwX2XC.F.6.6.;.a.a.a.a.a.a.a.a.a.a.a.a.a.a.a.a.a.a.a.a.a.a.a.",
"XXXXXXXXXXXXXXXXXXXXXXXXXXXXOXOXXXXXXX|.XXH w [ Z.J.D.S.N.6.q.7XwXwXwX2XA.F.8.8.;.a.a.a.a.a.a.a.a.a.J F S S S F F F S S F F F S ",
"XXXXXXOXXXXXXXXXXXOXXXXXXXXXOXOXXXXX|.S f j.x.b.6X4XJ.S.n.8.N.9XwX7XwX8X6X3X>.>.-.+.a.a.a.a.a.a.a.@.A Z c k j z Z c k k z z c k ",
"XXOXXXXXXXXXXXXXXXXXXXXXXXXXOXOXXXXX{.w w x.J.<XwX7XS.S.n.7.n.qXwXrXrXwXeX3X/ 8 ` +.+.L L L L L +.L Z Z c k j z z c c c z z c k ",
"XXXXXXXXXXXXXXXXXXXXXXXXXXOXoX*.g.:.[ Q 5 x.1X2XwX7X2X<Xv.,.4.>X,X8XwXwXwX8X3.5.~ ..b Z A A A A Z z c s k k k j j c z z j k k k ",
"OXXXXXXXXXOXOXXXOXXXOXOXOXOX~ 9 ( 7.6.0 8 :XwXwXwXwXwXwXc.q ( 2.8.5XwXwXwX8XJ.J.<.8 ^ Z Z Z Z A Z z k k k k j j k c Z Z k k k k ",
"U U d.s.d.U U U U U s.s.=.Y ) 0 <.7.6.0 8 :XwX0X7XwX7X0Xc.q ( 2.6.5XwX7XwX8XK.J.3.q ! c c c c c c c k k c b c z N I K J N z z c ",
"Z z K a.L z A x A A a.@.9 9 ,.8.7.7.6.0 / :XwXwXwX7X<XJ.4.q 0 ( / 3XwXwXwX7X7X7X0.q ! k k k k k k k k k c Z Z Z x J a.a.Z Z z Z ",
"A A K a.L z x x x A +.O.9 0 1.7.7.7.6./ / =XeXwXwX7XK.J.4.q 0 q q 3XwXwX7XwXwXwX0.q ! k k k k k m v m M H I I I I Y a.a.F A Z Z ",
"a.a.F Z Z k k v k k v Q 9 0 1.7.1.>.( R 6 v.2X1X1X1Xn.n.<.5 ^ l.k.4X0X0XwX8X1X1X:.6 d k k k k D a.a.|.|.|.|.XX|.|.XXXX}.a.a.J Z ",
"a.a.I x z k s j k l d k 9 0 1.7.,.q 8 5 5 l.J.Z.Z.A.7.7._ 3 ^ J.J.8XwXwXeX7XD.S.[ 4 a d k k k S a.d.|.OXOXXXOXXXXXOXOX}.a.a.J Z ",
"$.O.S c c k j k k m W.=.~ ) <.,.( 7 7 p p z.=X=X=X-X;X0.~ e E F.F.2X6X4X2X>Xb.x.-.s n W.W.z z H J J |.OXOXOXXXOXXXXXXXXXf.f.Y x ",
" . .v k k k k l k M XXXXXXOXf y 2 r e U.U.~.`.`._._.$X%XE.w R 8.8.F.J.m.7.1.5 5 d.OXOXOX|.A z z Z I |.OX|.OXXXXXXXXXOXXXOXOXT.Z ",
" .O...} v k ..k k M XXXXXXXXf 5 e y p U.I.~.`.`.).`.&X%XT.3 R 6.6.V.D.m.6.1.y y d.XXXXXX.XI I A Z I |.|.XXOXXXXXXXXXXXXXOXOXe.A ",
"*.*.*.*.%. .| ..j M XXXXXXXX.X[.=.Q l *X@X#X$X&X$X&X%X%X+X/./.R R E E R R Q ].]..XXXXXXXXXa.a.J Z I |.OXXXXXXXXXXXXXOXXXOXOXe.A ",
"*.*.*.*.%. . ...k m XXXXXXXXXXXXW.{ X.#X%X%X%X%X%X%X%X%X+X`.~.w 5 w 3 3 w s }.XXXXXXXXXXXXa.a.F Z I |.OXXXXXXXXXXXOXXXXXXXOXe.Z ",
"*.*.*.*.%. . .k l m Y U d.s.s.XXW.W X.#X%X%X%X%X%X%X%X%X+X`.~.C C w e f K =.OXOXXXXXXXXX.Xa.a.J z I |.XXXXXXOXXXXXXXXXXXXX|.e.x ",
"*.*.*.*.%. . .v k v z x K a.a.XXW.{ X.#X&X&X%X%X%X%X%X%X+X`.~.I.U.p r G XXXXXXXXXXXXOXXX|.a.a.J x I |.|.XXXXXXXXXXXXXXOXXXOXe.z ",
"*.*.*.*.&. . .v k j z x F +.+.[.=.W X.$X%X%X&X%X%X%X$X$X+X_.(.I.U.p e $.XXXXXXOXXXXXXXXXXXL L J I I |.OXXXXXOXXXXXXXXXXXXXOXe.A ",
"*.*.*.*.&.Z z c k k k k k k m Z c W X.#X%X&X%X%X&X&X).).`.`.~.I.U.p y D XXOXXXXXXXXXXXXX|.A Z J a.a.|.OXXXXXXXXXXXXXXXXXOXOX].L ",
"%.*.*.*.&.Z z c k k k k k k j z C { X.#X%X%X%X%X%X&X+X`.`.`.(.I.P.p y T XXXXXXXXOXXXXXXX|.A x K a.d.|.OXXXOXXXXXXXOXXXXXOX|.s.a.",
"*.*.*.*.%.z Z F P $.P O.P G K K S { X.(.+X`.+X+X+X+X`.`./.Y.Y.l } W.'.'.XXOXXXXXXXXXXXXX|.K K L a.d.OXOX|.OXXXXXXXOXXXXXXXXX}.].",
"*.*.*.*.&.Z Z K a.a.a.a.a.a.a.a.O.{ X.)._._._.`._._._.`.R.U.B { { [.XXXXXXXXXXXXXXXXXXXXXXa.a.a.a.a.|.OXOXOXXXXXXXXXXXXXXXXX|.OX",
"*.*.*.*.&.Z z K a.a.a.a.a.a.a.a.O.{ } R.!.^.`.`._._._.`.R.U.B d 5 '..XXXXXXXOXXXXXXXXXOXXXa.a.L a.a.|.|.XXXXXXXXXXXXXXXXXXXXOXOX",
"*.*.*.*.&.Z Z K a.a.a.a.a.a.a.a.O.{ { P.U.~.`.`._._._._.R.U.B e 3 z I |.XXXXXXXXXXXXXXXXXXa.a.J Z I |.OXXXXXXXOXXXXXXXOXXXXXXXXX",
"*.*.*.*.&.Z Z K a.a.a.a.a.a.a.a.O.W ..B P.!.).(.(.(.(.).R.P.V 3 5 z I XXXXXXXXXXXXXXXXXX|.d.a.P z I XXXXXXXXXXXXXXXX|.OXOXOXOXOX",
"*.*.*.*.&.Z x K a.a.a.a.a.a.a.a.a.+.@.} { V I.I.Y.I.I.I.C { { 3 5 z A XXXXXXXXXXXXXXXXXX|.a.a.F z I |.XXXXXXXXXXXXOXOXOX|.OX[.s.",
"*.*.*.*.&.Z Z K a.a.a.a.a.a.a.a.a.a.+.{ { V I.U.I.I.U.I.l { { 3 5 c I XXXXXXXXXXXXOXXXXX|.a.a.F z I |.XXOXXXXXXXXX|.OX|.XXXXf.a.",
"*.*.*.*.#.Z Z K a.a.a.a.a.a.a.a.a.a.+.a y l l V I.I.U.U.V { } 5 3 s p n  . . . . . .&.[.[.L +.F z Z XXXXXXXXXX}.|.{. X[.[.'.d.L ",
"          Z Z K a.a.a.a.a.a.a.a.a.a.+.r 3 W { } I.U.I.U.C { 6 3 3 3 5 5 { W W W W { { k k v k k j m .XXXXXXXXXa.a.J z z j j k k ",
"          Z z K a.a.a.a.a.a.a.a.a.a.+.f f d d C U.I.U.U.V l l 3 5 d 5 } E.E.E.E.} Q d j k k k k j m XXXXOXXXXXa.a.J z z j k k k ",
"          #.#.$.S n | S n n S n n n n n n s 5 p U.U.U.I.I.U.P.{ } 5 5 Y.`.`.`.`.V 5 d ..| | ........$.$.$.$.T F F T %.o.o.o.#.o.",
"          *.%.| j d k k k k k k k k k k k a 3 p U.U.I.U.I.Y.Y.} X.Q 3 Y._.(.(.(.V r d  . . . . . .| k j k k C z z $.*.*.*.*.W.*."
};
