/* XPM */
static char *result[] = {
/* columns rows colors chars-per-pixel */
"64 64 256 2 ",
"   c #2E3B43",
".  c #333E46",
"X  c #344047",
"o  c #364048",
"O  c #3C444C",
"+  c #3F4950",
"@  c #40464F",
"#  c #464F4F",
"$  c #53554F",
"%  c #414650",
"&  c #444B53",
"*  c #4A4B56",
"=  c #4D4D59",
"-  c #504E5A",
";  c #465156",
":  c #4D5453",
">  c #4D535A",
",  c #515751",
"<  c #565C55",
"1  c #595E56",
"2  c #54525D",
"3  c #58515F",
"4  c #53585F",
"5  c #5B5C5B",
"6  c #605E5D",
"7  c #5A6056",
"8  c #61635A",
"9  c #66695A",
"0  c #6A6D5C",
"q  c #726C56",
"w  c #7C7459",
"e  c #79795F",
"r  c #555760",
"t  c #5B5462",
"y  c #555A61",
"u  c #5C5D65",
"i  c #625766",
"p  c #635867",
"a  c #645768",
"s  c #655968",
"d  c #695E6C",
"f  c #5A6165",
"g  c #5D6368",
"h  c #5E6969",
"j  c #646764",
"k  c #6D6564",
"l  c #6B6C67",
"z  c #63636B",
"x  c #6A626E",
"c  c #64696D",
"v  c #6A6A6F",
"b  c #73666A",
"n  c #756B6A",
"m  c #7B6F6D",
"M  c #6C7369",
"N  c #757263",
"B  c #777861",
"V  c #7D716F",
"C  c #6D6671",
"Z  c #6D6A72",
"A  c #726B75",
"S  c #756E78",
"D  c #6A7678",
"F  c #6F7B7C",
"G  c #717177",
"H  c #7E7372",
"J  c #76737A",
"K  c #7A767D",
"L  c #747B7A",
"P  c #7B797E",
"I  c #887767",
"U  c #827E65",
"Y  c #887B6E",
"T  c #807370",
"R  c #847A77",
"E  c #897C73",
"W  c #76817B",
"Q  c #7C817D",
"!  c #838265",
"~  c #878568",
"^  c #888768",
"/  c #8E8B6A",
"(  c #908C67",
")  c #928E6C",
"_  c #96926D",
"`  c #9B966E",
"'  c #8E8173",
"]  c #9D9572",
"[  c #9D9870",
"{  c #B59C66",
"}  c #B69D68",
"|  c #A29D72",
" . c #A3967A",
".. c #A6997A",
"X. c #A99B7B",
"o. c #BAA36A",
"O. c #BEA86D",
"+. c #A7A174",
"@. c #ACA373",
"#. c #AEA07D",
"$. c #B6AC76",
"%. c #BEAA70",
"&. c #B4AB79",
"*. c #B8A97F",
"=. c #BDB37C",
"-. c #C0A96E",
";. c #C1AD71",
":. c #C5B274",
">. c #C9B576",
",. c #C9B877",
"<. c #C0B57D",
"1. c #C8B778",
"2. c #C5BA7F",
"3. c #CDBE7B",
"4. c #D2BD7B",
"5. c #CFC07D",
"6. c #D2C37E",
"7. c #7E7B81",
"8. c #817D84",
"9. c #7E8381",
"0. c #828385",
"q. c #848A86",
"w. c #848589",
"e. c #868C89",
"r. c #888C8D",
"t. c #859087",
"y. c #879289",
"u. c #89948B",
"i. c #8C988F",
"p. c #8E9493",
"a. c #8D9992",
"s. c #909697",
"d. c #909C96",
"f. c #919798",
"g. c #939E9A",
"h. c #95A29C",
"j. c #98A59F",
"k. c #BAAB80",
"l. c #99A6A1",
"z. c #9CAAA6",
"x. c #9EADA9",
"c. c #A0AFAB",
"v. c #A2B2AD",
"b. c #C1B380",
"n. c #C7BB80",
"m. c #CABD82",
"M. c #D5C582",
"N. c #D9C781",
"B. c #D7C983",
"V. c #DCCB84",
"C. c #DDCD89",
"Z. c #DFD089",
"A. c #E0CF87",
"S. c #E1D087",
"D. c #E5D48A",
"F. c #E8D78C",
"G. c #ECDB8E",
"H. c #EFDE90",
"J. c #F0DE90",
"K. c black",
"L. c black",
"P. c black",
"I. c black",
"U. c black",
"Y. c black",
"T. c black",
"R. c black",
"E. c black",
"W. c black",
"Q. c black",
"!. c black",
"~. c black",
"^. c black",
"/. c black",
"(. c black",
"). c black",
"_. c black",
"`. c black",
"'. c black",
"]. c black",
"[. c black",
"{. c black",
"}. c black",
"|. c black",
" X c black",
".X c black",
"XX c black",
"oX c black",
"OX c black",
"+X c black",
"@X c black",
"#X c black",
"$X c black",
"%X c black",
"&X c black",
"*X c black",
"=X c black",
"-X c black",
";X c black",
":X c black",
">X c black",
",X c black",
"<X c black",
"1X c black",
"2X c black",
"3X c black",
"4X c black",
"5X c black",
"6X c black",
"7X c black",
"8X c black",
"9X c black",
"0X c black",
"qX c black",
"wX c black",
"eX c black",
"rX c black",
"tX c black",
"yX c black",
"uX c black",
"iX c black",
"pX c black",
"aX c black",
"sX c black",
"dX c black",
"fX c black",
"gX c black",
"hX c black",
"jX c black",
"kX c black",
"lX c black",
"zX c black",
"xX c black",
"cX c black",
"vX c black",
"bX c black",
"nX c black",
"mX c black",
"MX c black",
"NX c black",
"BX c black",
"VX c black",
"CX c black",
"ZX c black",
"AX c black",
"SX c black",
"DX c black",
"FX c black",
"GX c black",
"HX c black",
"JX c black",
"KX c black",
"LX c black",
"PX c black",
"IX c black",
"UX c black",
/* pixels */
"G.G.G.G.G.G.G.G.G.G.G.G.Z.3.6.G.G.G.G.G.G.G.G.G.G.G.G.G.G.G.G.G.G.G.G.G.G.G.G.G.G.G.G.F.G.G.G.G.G.H.F.G.G.G.G.G.G.G.G.G.G.G.G.G.",
"G.G.G.G.G.G.G.G.G.G.G.G.V.5.6.G.G.G.G.G.G.G.G.G.G.G.G.G.G.G.G.G.G.G.G.G.G.G.G.G.G.G.G.H.G.G.G.G.G.G.G.G.G.G.G.G.G.G.G.G.G.G.G.G.",
"G.G.G.G.G.D.6.V.G.G.G.G.F.D.F.G.G.G.G.D.6.S.G.G.G.G.G.G.G.G.G.G.G.G.G.G.G.G.G.G.G.G.G.G.G.G.G.G.G.G.G.G.G.G.G.G.G.G.G.G.G.G.G.G.",
"G.G.G.G.G.Z.5.6.G.G.G.G.G.G.G.G.G.G.G.6.5.6.H.G.G.G.G.G.G.G.G.G.G.G.G.G.G.G.G.G.G.G.G.G.G.G.G.G.G.G.G.G.G.G.G.G.G.G.G.G.G.G.G.G.",
"G.G.G.D.Z.6.3.5.S.V.F.G.G.G.G.G.G.G.G.D.V.S.G.G.G.G.G.G.G.G.G.G.G.G.G.G.G.G.G.G.G.G.G.G.G.G.G.G.G.G.G.G.G.G.G.G.G.G.G.G.G.G.G.G.",
"G.G.G.V.3.6.5.3.5.5.D.H.G.G.G.G.G.G.G.G.G.G.G.G.G.G.G.G.G.G.G.G.G.G.G.G.G.G.G.G.G.G.G.G.G.G.G.G.G.G.G.G.G.G.G.G.G.G.G.G.G.G.G.G.",
"F.D.D.6.3.3.5.5.6.6.D.G.G.G.G.G.G.G.G.G.G.G.G.G.G.G.G.G.G.G.G.G.F.C.C.C.C.G.G.G.G.G.G.G.G.G.G.G.G.G.G.G.G.G.G.G.G.G.G.G.G.F.F.G.",
"6.5.6.3.5.5.5.6.G.G.G.G.G.G.G.G.G.G.G.G.G.G.G.G.G.G.G.G.G.G.G.G.X.x b x b B.G.G.G.G.G.G.G.G.G.G.G.G.H.G.G.G.G.G.G.G.G.H.S.4.6.F.",
"5.5.6.6.6.6.5.6.G.G.H.G.H.G.H.G.G.G.G.G.G.G.G.G.G.G.G.G.G.H.G.H.X.p p s d m.H.G.G.G.G.G.G.G.G.G.G.G.G.G.G.G.G.G.G.G.G.G.S.3.5.G.",
"D.F.F.6.5.6.D.D.G.G.6.6.V.H.G.G.G.G.G.G.G.D.6.6.G.G.G.G.G.F. .E R K S s d m.G.G.G.G.G.G.G.G.G.G.G.G.G.G.G.G.G.G.G.G.G.G.G.F.F.G.",
"H.G.H.6.,.6.G.H.G.H.6.5.V.G.G.G.G.G.G.G.G.D.3.6.F.H.G.G.G.G.H a A 8.K p s M.G.G.G.G.G.G.H.G.G.G.G.G.G.G.G.G.G.G.G.G.G.G.G.G.G.G.",
"G.G.G.D.S.F.H.F.6.S.S.V.D.G.G.G.G.G.G.G.G.F.V.Z.B.V.F.A.k.k.K C P s.w.s d m.G.G.G.G.G.G.F.H.M.*.k.k.k.@.+.m.G.G.G.G.G.G.G.G.G.G.",
"G.G.G.G.H.G.G.F.5.5.D.H.H.G.G.G.G.G.G.G.G.G.G.F.4.4.D.m.a a 7.7.s.v.g.d s M.G.G.G.G.G.G.G.G.X.a a i i O o / G.G.G.G.G.G.G.G.G.G.",
"G.G.G.G.G.G.G.F.6.6.S.D.D.G.G.G.G.G.G.G.G.G.G.G.B.m.B.b.d d 7.7.s.c.a.p i m.G.G.G.G.G.H.A.A. .d x C C & o ) G.G.G.G.G.G.G.G.G.D.",
"G.G.G.G.G.G.G.G.H.H.6.5.V.G.G.G.G.G.G.G.G.G.G.G.G._ O 2 7.7.h.l.d.u.Q O O $.G.G.G.G.G.F.R d K t.p.l.l.C t ..G.G.G.G.G.G.G.G.F.5.",
"G.G.G.G.G.G.G.G.G.G.6.5.V.G.G.G.G.G.G.G.G.G.G.G.G.) X & 7.7.l.v.d.y.W o o &.G.G.G.G.G.F.T a J y.p.z.z.Z p ..F.G.G.G.G.G.G.G.D.5.",
"G.G.G.G.G.G.G.G.G.G.6.5.6.5.6.H.H.G.G.G.G.G.G.^ l 7 r s g.h.x.x.s.0.L o o =.6.` 9 N ' ' Q Q u.l.h.a.a.C a  .6.6.G.G.G.H.S.6.6.3.",
"G.G.G.G.G.G.G.G.G.G.6.6.5.5.6.G.G.G.G.G.G.G.G.7 X = i A x.x.v.v.s.8.G o o 1.3.! . O a p 0.y.g.c.l.y.t.C s  .3.3.D.G.G.G.S.3.3.3.",
"G.G.G.G.G.G.G.G.G.G.6.3.6.D.F.G.G.G.G.G.Z.+.[ : . y 7.9.x.x.f.f.w.S v X o ( | N & 2 G G u.d.j.x.l.y.y.u - ] S.D.G.G.G.G.G.S.S.6.",
"G.G.G.G.G.G.G.G.G.H.6.3.V.J.H.G.G.G.G.G.2.X X X . D v.x.x.x.w.7.A p 2 O o X . = p x t.u.l.c.x.x.l.y.t.; . / H.G.G.G.G.G.G.H.G.5.",
"G.G.G.G.G.G.G.G.S.V.V.V.V.Z.S.G.G.G.Z.B.$.& + + + W c.x.l.l.7.7.A p t o X O + 4 x A u.u.l.x.z.z.j.y.t.; . / G.G.G.G.G.G.D.Z.V.V.",
"G.G.G.G.G.G.G.D.5.5.F.J.V.3.M.G.H.G._ O : P P 9.9.a.c.l.p.u.Z s s s t o O Z P 9.q.u.z.x.x.x.h.t.u.y.y.; . / G.G.G.G.G.G.S.3.6.G.",
"F.G.G.G.G.G.G.F.6.6.D.D.V.5.6.F.F.G./ X & 7.9.y.t.h.x.l.u.t.x i p d t o o G 8.q.y.i.z.c.x.v.h.t.y.y.y.; . / G.G.G.G.G.G.D.6.M.F.",
"6.F.G.G.G.G.G.G.G.G.6.5.3.5.3.3.e 9 l Z G e.e.g.l.g.a.p.w.9.C i p p d C v 0.q.d.j.j.x.z.d.a.e.0.9.C C & . ) G.G.G.G.G.G.G.G.G.G.",
"6.F.G.G.G.G.G.G.G.G.6.5.5.5.5.5.:   f 0.0.y.y.z.c.h.t.q.7.7.C i p p x 8.8.e.y.h.c.x.x.x.u.y.0.8.K a a O . / G.G.G.G.F.H.F.H.H.F.",
"D.G.G.G.G.G.G.G.G.G.F.F.D.B.| ` j 4 Z w.q.y.y.g.h.p.q.0.S S A C C C S 0.0.a.d.g.h.h.h.h.u.y.w.7.K s i % . ) G.G.G.G.H.H.H.F.F.H.",
"G.G.G.G.G.G.G.G.G.G.G.G.G.m.. o G 0.q.y.y.y.y.y.y.9.' 7.a a 7.8.0.7.0.y.y.l.c.h.t.y.y.y.y.y.q.8.K s s % . ) G.G.G.G.G.F.G.G.H.G.",
"6.G.G.G.G.G.G.G.G.G.G.S.B.&.@ O G 0.q.y.y.y.y.e.e.9.7.7.d s 7.8.8.0.0.y.y.j.z.d.u.u.y.y.y.y.0.7.S i t @ . ~ C.C.V.C.M.M.C.G.G.G.",
"6.G.G.G.G.G.G.G.G.G.G._ O & i a 0.y.y.y.y.y.y.0.7.9.8.8.7.7.7.8.q.t.t.y.y.u.u.h.z.l.u.y.0.8.S s t O o o . 2 x k x k & O _ G.G.G.",
"6.G.G.G.G.G.G.G.G.G.G.) X @ a s 9.u.y.y.y.y.y.0.8.7.7.8.7.8.7.7.q.y.u.y.y.y.t.h.c.l.y.r.0.8.A s t o o . . = p p p p O X / G.G.G.",
"J.G.G.G.G.G.G.G.G.! 9 7 3 u J J 0.0.K C A v A x C S 7.8.8.8.A C x A C A C 7.0.0.r.r.0.8.Z C d s t o o - 3 v 0.Q Q 9.L F M 9 ! F.",
"H.G.G.G.F.G.G.G.G.<   : p x 8.8.7.0.A t i i a i a A w.7.8.8.d i p p p p s K 0.7.7.7.8.7.d i a s t o . t a L u.u.u.y.y.i.h . < F.",
"G.G.H.V.5.V.V.| ` 5 * u A G 0.q.0.q.K A C s s p i C S S A A A A x p a a s A G K 8.8.8.8.A A d s t * * x A P y.t.u.t.y.u.c . 1 F.",
"G.G.G.6.3.V.2.X o 3 a S 8.0.y.y.y.y.0.8.K s s s a s a a a a K 8.A i a s a s p A 8.8.8.8.8.8.A i s a s K 8.w.t.u.y.y.y.u.h . 7 F.",
"G.G.G.F.Z.F.2.O o t s A P 8.y.y.y.y.q.8.K s p s s s a a d x J 8.A d d p s t t C P K 7.K 8.0.L C C Z C 8.w.r.i.u.u.t.y.y.h . 7 F.",
"G.G.G.G.G.G.2.O o t p p d x y.y.y.y.w.8.K s s a i s a d 7.7.d a A 8.K p s % o = d s s d 0.y.f.z.l.z.l.z.z.z.z.l.u.t.0.8.u . 7 F.",
"G.G.G.G.G.G.n.O o t s p p x y.u.y.y.q.8.K s a s s a a x 8.8.d i A 8.K s p O . = s s s s 0.y.g.c.x.x.x.x.x.z.c.l.y.y.0.8.u . 7 D.",
"G.G.! 7 N E V t 3 * @ & @ @ > > L w.8.0.K s s s s s a s x C S 7.z ; > i s t t = O * p s 7.0.w.r.r.p.a.a.a.u.r.0.A C C x > . 1 G.",
"G.G.7 X * p i u p O   . . . . X G 8.8.8.J s s s s s a s a a 7.w.u   O i i i s * . O a d K 8.8.8.0.y.y.y.y.w.8.J a i p a *   7 G.",
"[ ` 1 & p J L 7.7.c f y y 4 & = x S K 8.8.C A s p s s u - = C A z y u Z A A A 2 . O = - C S S A J w.q.q.q.0.8.K s p C A z y j ` ",
". o t a J u.i.c.c.a.u.q.8.P s p p p A 8.8.0.8.x p p s t . . r a A 8.8.8.7.8.w.u   . . . t s a a d 8.8.8.8.8.0.K s s K 8.8.8.J O ",
"O o u d P i.a.x.x.a.i.e.0.P x x d p A 8.7.K K s t i d t & & d Z J 0.w.w.w.9.0.z & + o o - t t t s K 8.8.8.8.K J d s J 7.K L C . ",
"O o G 8.p.x.x.x.x.z.x.g.r.y.t.e.x p A 8.7.s s % X = p x P 7.h.z.d.t.p.z.z.p.y.9.7.G o o . O O . * 7.8.8.8.A p s p p s s > o O . ",
"O X G 7.p.x.x.x.z.x.x.g.t.y.y.y.x p A 0.J s s O X = s x 7.7.l.x.h.t.p.z.z.a.y.q.8.G o o O . . . & 7.8.8.8.A p p s s s s = o o o ",
"o o S 8.q.a.d.x.z.d.a.u.y.e.0.8.x a r & 2 a a Z Z L 0.9.e.e.i.i.d.l.j.i.a.j.z.w.d d r r O . . . ; 7.7.8.8.A a p p p * @ U <.<.=.",
"X X G 0.q.y.i.x.c.a.y.y.y.e.8.8.d a *   O i s P w.q.u.u.y.y.y.t.h.v.l.u.y.l.v.w.i a s s % . O . & 0.8.8.0.A a p p i @ . / H.G.H.",
"* = C A P q.q.s.s.q.q.q.q.0.8.8.S A u * 2 a a Z A P q.q.y.y.y.y.u.s.p.q.q.w.w.J i a s s + . . . + u g A A b i d I I U ^ *.G.G.G.",
"s s a i A 8.8.8.7.8.7.8.8.8.8.8.0.8.S s s s s s i A 0.0.u.y.y.y.0.8.7.8.8.x t s a a a a O . . . o . . t s s s b o.o.6.F.F.G.G.G.",
"t t s a A 8.8.8.8.8.0.8.0.7.7.K P 7.x t t t i t t x P P 0.q.q.e.0.8.7.P K d a a a s d d & O O X O : , k b b b Y ,.3.;.o.>.G.G.G.",
"O o t s A 8.8.7.7.r.y.y.u.9.d s s s - o o o o o X - s d s d P 9.8.8.K s s s p s i d 7.7.x a * . 1 3.3.%.{ o.2.3.5.5.%.{ >.G.G.G.",
"O o t p Z 8.7.7.7.e.y.y.y.9.a a s s = . o o o . . * s s s s K 8.8.8.K s s s s s s C 7.8.d a = X 7 M.5.,.:.,.3.5.3.3.,.:.6.G.G.G.",
"@.=.1 @ & ; y R 8.0.0.0.q.P s a s s = . o o X o . O @ > J K 7.8.8.8.K s s s a C 7.S x C & + O o 7 5.3.5.5.5.5.3.5.5.5.3.N.G.G.G.",
"V.6.$   . . & 8.8.8.8.8.9.7.i s s s - . o . . . . . . & 8.8.8.8.8.0.K s s s s S 8.7.s a O X X o < V.V.M.5.5.5.5.3.3.N.V.S.G.G.G.",
"G.o.U q $ . @ A A S S A S C = = = - @ X # ^ ( ^ ) 8 . % A S S A A S A s a - = r u u = = O o 7 / [ G.G.V.3.5.3.3.3.3.S.G.J.G.G.G.",
"A.-.o.o.w . O a p p i i s t . . . . . . 1 G.G.G.H.) . % i i i i a i i s s + . . . . . . X X _ G.G.G.H.Z.6.6.6.6.M.6.S.J.G.G.G.G.",
"} ,.6.3.( $ < n b b m H H n 1 1 1 1 1 < B G.G.G.G.| , 8 H V H V V V V V H 7 < 1 < < 1 1 7 , | G.G.G.G.G.G.G.G.G.G.G.G.G.G.G.G.G.",
"o.3.5.3.3.3.,.,.} } V.G.F.F.D.F.D.F.F.D.F.G.G.G.H.F.F.D.F.F.F.F.F.F.D.F.F.D.D.D.D.D.F.D.F.D.F.G.G.G.G.G.G.G.G.G.G.G.G.G.G.G.G.G.",
",.3.3.5.3.5.5.3.,.,.D.G.G.G.G.G.G.G.G.G.G.G.G.G.G.G.G.G.G.G.H.G.G.M.M.>.O.-.-.;.6.6.D.G.G.G.G.G.G.G.G.G.G.G.G.G.G.G.G.G.G.G.G.G.",
"3.5.5.3.3.5.3.5.6.4.D.G.G.G.G.H.J.J.J.G.J.G.G.G.H.G.G.G.G.G.G.G.G.M.5.%.{ } { { 3.5.S.J.G.G.G.G.G.G.G.G.G.G.G.G.G.G.G.G.G.G.G.G.",
"V.5.5.3.5.3.6.6.V.A.G.G.D.V.6.3.>.4.,.>.,.4.4.4.B.B.F.G.G.G.G.G.G.>.O.:.;.;.>.;.-.-.A.G.G.G.G.G.G.G.G.G.G.G.G.G.G.G.G.G.G.G.G.G.",
"G.6.5.5.6.6.3.6.G.G.G.J.V.3.1.} } { { { { { { } 3.3.S.H.G.G.G.G.F.O.{ :.6.6.3.3.o.{ 6.G.G.G.G.G.G.G.G.G.G.G.G.G.G.G.J.G.G.G.G.G.",
"G.M.M.6.6.6.6.V.G.G.G.G.N.>.:.} } O.O.O.o.O.O.-.>.>.A.H.G.G.G.G.G.:.O.;.>.,.3.3.O.O.V.J.G.G.G.G.G.G.G.G.G.G.G.G.D.S.D.S.D.G.G.G.",
"G.G.G.G.G.G.G.G.G.G.G.G.4.{ } { } ,.6.3.3.5.3.3.} { N.J.G.G.G.G.G.6.3.;.{ O.3.5.5.3.D.J.G.G.G.G.G.G.G.G.G.G.G.F.6.5.3.3.V.J.G.G.",
"G.G.G.G.G.G.G.G.G.G.G.J.4.{ { } o.,.5.5.3.5.4.3.o.{ V.H.G.G.G.G.G.6.3.;.} O.3.5.5.5.S.G.G.G.G.G.G.G.G.G.G.G.G.G.6.5.5.3.M.G.G.G."
};
